%FSLAX46Y46*%
G04 Gerber Fmt 4.6, Leading zero omitted, Abs format (unit mm)*
G04 Created by KiCad (PCBNEW (2014-10-04 BZR 5163)-product) date So 05 Okt 2014 16:09:57 CEST*
%MOMM*%
G01*
G04 APERTURE LIST*
%ADD10C,0.100000*%
%ADD11R,1.397000X1.397000*%
%ADD12C,1.397000*%
%ADD13C,1.676400*%
%ADD14C,1.778000*%
%ADD15R,1.778000X1.778000*%
%ADD16R,2.032000X1.727200*%
%ADD17O,2.032000X1.727200*%
%ADD18R,1.676400X1.676400*%
%ADD19C,4.318000*%
%ADD20C,0.889000*%
%ADD21C,0.812800*%
%ADD22C,0.254000*%
G04 APERTURE END LIST*
D10*
D11*
X116840000Y-77470000D03*
D12*
X116840000Y-80010000D03*
X116840000Y-82550000D03*
X116840000Y-85090000D03*
X116840000Y-87630000D03*
X116840000Y-90170000D03*
X116840000Y-92710000D03*
X116840000Y-95250000D03*
X116840000Y-97790000D03*
X116840000Y-100330000D03*
X124460000Y-100330000D03*
X124460000Y-97790000D03*
X124460000Y-95250000D03*
X124460000Y-92710000D03*
X124460000Y-90170000D03*
X124460000Y-87630000D03*
X124460000Y-85090000D03*
X124460000Y-82550000D03*
X124460000Y-80010000D03*
X124460000Y-77470000D03*
X119380000Y-72390000D03*
X121920000Y-72390000D03*
X124460000Y-53340000D03*
X121920000Y-53340000D03*
X119380000Y-63500000D03*
X121920000Y-63500000D03*
D13*
X137160000Y-104140000D03*
X137160000Y-101600000D03*
D12*
X124460000Y-104140000D03*
X132080000Y-104140000D03*
D14*
X124460000Y-58420000D03*
D15*
X121920000Y-58420000D03*
D14*
X119380000Y-58420000D03*
D12*
X134620000Y-87630000D03*
X134620000Y-95250000D03*
D16*
X130810000Y-92710000D03*
D17*
X130810000Y-95250000D03*
X130810000Y-97790000D03*
X130810000Y-100330000D03*
D12*
X130810000Y-88900000D03*
X130810000Y-86360000D03*
D18*
X109220000Y-60960000D03*
D13*
X109220000Y-58420000D03*
X109220000Y-55880000D03*
X107950000Y-77470000D03*
X110490000Y-77470000D03*
D12*
X107950000Y-71120000D03*
X115570000Y-71120000D03*
D13*
X128270000Y-71120000D03*
X128270000Y-73660000D03*
D12*
X119380000Y-67310000D03*
X127000000Y-67310000D03*
D13*
X105410000Y-104140000D03*
X107950000Y-104140000D03*
X107950000Y-101600000D03*
X105410000Y-101600000D03*
X105410000Y-99060000D03*
X107950000Y-99060000D03*
X107950000Y-96520000D03*
D18*
X105410000Y-96520000D03*
X107950000Y-82550000D03*
D13*
X107950000Y-85090000D03*
X107950000Y-87630000D03*
D18*
X134620000Y-78740000D03*
D13*
X134620000Y-81280000D03*
X134620000Y-83820000D03*
D12*
X128270000Y-76200000D03*
X128270000Y-83820000D03*
D19*
X137160000Y-57150000D03*
X137160000Y-63150000D03*
X132460000Y-60150000D03*
D18*
X115570000Y-55880000D03*
D13*
X115570000Y-53340000D03*
D20*
X114300000Y-88900000D03*
D21*
X124460000Y-53340000D02*
X124460000Y-58420000D01*
X137160000Y-63150000D02*
X129190000Y-63150000D01*
X129190000Y-63150000D02*
X128270000Y-62230000D01*
X128270000Y-57150000D02*
X124460000Y-53340000D01*
X128270000Y-62230000D02*
X128270000Y-57150000D01*
X121920000Y-58420000D02*
X121920000Y-53340000D01*
X121920000Y-63500000D02*
X121920000Y-58420000D01*
X132080000Y-86360000D02*
X134620000Y-83820000D01*
X130810000Y-86360000D02*
X132080000Y-86360000D01*
X105410000Y-90170000D02*
X107950000Y-87630000D01*
X105410000Y-96520000D02*
X105410000Y-90170000D01*
X121920000Y-63500000D02*
X121920000Y-67310000D01*
X121920000Y-67310000D02*
X121920000Y-72390000D01*
X121920000Y-53340000D02*
X124460000Y-50800000D01*
X132460000Y-57096713D02*
X132460000Y-60150000D01*
X126163287Y-50800000D02*
X132460000Y-57096713D01*
X124460000Y-50800000D02*
X126163287Y-50800000D01*
X111760000Y-53340000D02*
X109220000Y-55880000D01*
X121920000Y-53340000D02*
X111760000Y-53340000D01*
X134620000Y-100330000D02*
X130810000Y-100330000D01*
X135890000Y-101600000D02*
X134620000Y-100330000D01*
X137160000Y-101600000D02*
X135890000Y-101600000D01*
X114300000Y-90170000D02*
X114300000Y-88900000D01*
X116840000Y-77470000D02*
X118351300Y-77470000D01*
X125112273Y-76111099D02*
X119710201Y-76111099D01*
X110490000Y-77470000D02*
X116840000Y-77470000D01*
X119380000Y-63500000D02*
X119380000Y-58420000D01*
X130810000Y-92710000D02*
X130810000Y-88900000D01*
X130810000Y-88900000D02*
X132080000Y-88900000D01*
X133350000Y-88900000D02*
X134620000Y-87630000D01*
X132080000Y-88900000D02*
X133350000Y-88900000D01*
X134620000Y-87630000D02*
X136971083Y-87630000D01*
X119380000Y-63500000D02*
X119380000Y-67310000D01*
X119380000Y-67310000D02*
X119380000Y-72390000D01*
X139700000Y-77470000D02*
X139700000Y-85518707D01*
X137588707Y-87630000D02*
X139700000Y-85518707D01*
X136971083Y-87630000D02*
X137588707Y-87630000D01*
X138430000Y-76200000D02*
X139700000Y-77470000D01*
X128270000Y-76200000D02*
X138430000Y-76200000D01*
X119710201Y-76111099D02*
X118351300Y-77470000D01*
X125201174Y-76200000D02*
X125112273Y-76111099D01*
X128270000Y-76200000D02*
X125201174Y-76200000D01*
X107950000Y-96520000D02*
X114300000Y-90170000D01*
X132080000Y-104140000D02*
X137160000Y-104140000D01*
X130810000Y-95250000D02*
X134620000Y-95250000D01*
X124460000Y-95250000D02*
X130810000Y-95250000D01*
X110490000Y-80010000D02*
X116840000Y-80010000D01*
X107950000Y-77470000D02*
X110490000Y-80010000D01*
X107950000Y-71120000D02*
X107950000Y-77470000D01*
X128270000Y-68580000D02*
X127000000Y-67310000D01*
X128270000Y-71120000D02*
X128270000Y-68580000D01*
X124460000Y-100330000D02*
X124460000Y-104140000D01*
X123761501Y-93408499D02*
X124460000Y-92710000D01*
X123101099Y-96080075D02*
X123101099Y-94068901D01*
X113542573Y-105638601D02*
X123101099Y-96080075D01*
X123101099Y-94068901D02*
X123761501Y-93408499D01*
X106908601Y-105638601D02*
X113542573Y-105638601D01*
X105410000Y-104140000D02*
X106908601Y-105638601D01*
X113030000Y-104140000D02*
X116840000Y-100330000D01*
X107950000Y-104140000D02*
X113030000Y-104140000D01*
X115570000Y-99060000D02*
X116840000Y-97790000D01*
X107950000Y-99060000D02*
X115570000Y-99060000D01*
X107950000Y-82550000D02*
X116840000Y-82550000D01*
X107950000Y-85090000D02*
X116840000Y-85090000D01*
X130810000Y-78740000D02*
X124460000Y-85090000D01*
X134620000Y-78740000D02*
X130810000Y-78740000D01*
X124460000Y-87630000D02*
X128270000Y-83820000D01*
X130810000Y-81280000D02*
X128270000Y-83820000D01*
X134620000Y-81280000D02*
X130810000Y-81280000D01*
D22*
G36*
X138658600Y-85087345D02*
X137157345Y-86588600D01*
X136971083Y-86588600D01*
X136104977Y-86588600D01*
X136104977Y-84045903D01*
X136078389Y-83460431D01*
X135905490Y-83043017D01*
X135655413Y-82964192D01*
X134799605Y-83820000D01*
X135655413Y-84675808D01*
X135905490Y-84596983D01*
X136104977Y-84045903D01*
X136104977Y-86588600D01*
X135475808Y-86588600D01*
X135475808Y-84855413D01*
X134620000Y-83999605D01*
X134440395Y-84179210D01*
X134440395Y-83820000D01*
X133584587Y-82964192D01*
X133334510Y-83043017D01*
X133135023Y-83594097D01*
X133161611Y-84179569D01*
X133334510Y-84596983D01*
X133584587Y-84675808D01*
X134440395Y-83820000D01*
X134440395Y-84179210D01*
X133764192Y-84855413D01*
X133843017Y-85105490D01*
X134394097Y-85304977D01*
X134979569Y-85278389D01*
X135396983Y-85105490D01*
X135475808Y-84855413D01*
X135475808Y-86588600D01*
X135464625Y-86588600D01*
X135376353Y-86500173D01*
X134886413Y-86296732D01*
X134355914Y-86296269D01*
X133865620Y-86498854D01*
X133490173Y-86873647D01*
X133286732Y-87363587D01*
X133286621Y-87490616D01*
X132918638Y-87858600D01*
X132155927Y-87858600D01*
X132155927Y-86552520D01*
X132127148Y-86022801D01*
X131979800Y-85667071D01*
X131744188Y-85605417D01*
X131564583Y-85785022D01*
X131564583Y-85425812D01*
X131502929Y-85190200D01*
X131002520Y-85014073D01*
X130472801Y-85042852D01*
X130117071Y-85190200D01*
X130055417Y-85425812D01*
X130810000Y-86180395D01*
X131564583Y-85425812D01*
X131564583Y-85785022D01*
X130989605Y-86360000D01*
X131744188Y-87114583D01*
X131979800Y-87052929D01*
X132155927Y-86552520D01*
X132155927Y-87858600D01*
X132080000Y-87858600D01*
X131654625Y-87858600D01*
X131566353Y-87770173D01*
X131244881Y-87636686D01*
X131502929Y-87529800D01*
X131564583Y-87294188D01*
X130810000Y-86539605D01*
X130630395Y-86719210D01*
X130630395Y-86360000D01*
X129875812Y-85605417D01*
X129640200Y-85667071D01*
X129464073Y-86167480D01*
X129492852Y-86697199D01*
X129640200Y-87052929D01*
X129875812Y-87114583D01*
X130630395Y-86360000D01*
X130630395Y-86719210D01*
X130055417Y-87294188D01*
X130117071Y-87529800D01*
X130396311Y-87628083D01*
X130055620Y-87768854D01*
X129680173Y-88143647D01*
X129476732Y-88633587D01*
X129476269Y-89164086D01*
X129678854Y-89654380D01*
X129768600Y-89744282D01*
X129768600Y-91211400D01*
X129667691Y-91211400D01*
X129434302Y-91308073D01*
X129255673Y-91486701D01*
X129159000Y-91720090D01*
X129159000Y-91972709D01*
X129159000Y-93699909D01*
X129255673Y-93933298D01*
X129434301Y-94111927D01*
X129587779Y-94175500D01*
X129565585Y-94190330D01*
X129553377Y-94208600D01*
X125304625Y-94208600D01*
X125216353Y-94120173D01*
X124878553Y-93979906D01*
X125214380Y-93841146D01*
X125589827Y-93466353D01*
X125793268Y-92976413D01*
X125793731Y-92445914D01*
X125591146Y-91955620D01*
X125216353Y-91580173D01*
X124878553Y-91439906D01*
X125214380Y-91301146D01*
X125589827Y-90926353D01*
X125793268Y-90436413D01*
X125793731Y-89905914D01*
X125591146Y-89415620D01*
X125216353Y-89040173D01*
X124878553Y-88899906D01*
X125214380Y-88761146D01*
X125589827Y-88386353D01*
X125793268Y-87896413D01*
X125793378Y-87769383D01*
X128409140Y-85153621D01*
X128534086Y-85153731D01*
X129024380Y-84951146D01*
X129399827Y-84576353D01*
X129603268Y-84086413D01*
X129603378Y-83959383D01*
X131241362Y-82321400D01*
X133577979Y-82321400D01*
X133784409Y-82528190D01*
X133837995Y-82550441D01*
X133764192Y-82784587D01*
X134620000Y-83640395D01*
X135475808Y-82784587D01*
X135402129Y-82550836D01*
X135453411Y-82529647D01*
X135868190Y-82115591D01*
X136092944Y-81574323D01*
X136093455Y-80988248D01*
X135869647Y-80446589D01*
X135621407Y-80197916D01*
X135817898Y-80116527D01*
X135996527Y-79937899D01*
X136093200Y-79704510D01*
X136093200Y-79451891D01*
X136093200Y-77775491D01*
X135996527Y-77542102D01*
X135817899Y-77363473D01*
X135584510Y-77266800D01*
X135331891Y-77266800D01*
X133655491Y-77266800D01*
X133422102Y-77363473D01*
X133243473Y-77542101D01*
X133178648Y-77698600D01*
X130810000Y-77698600D01*
X130411473Y-77777872D01*
X130073619Y-78003619D01*
X125793027Y-82284210D01*
X125591146Y-81795620D01*
X125216353Y-81420173D01*
X124878553Y-81279906D01*
X125214380Y-81141146D01*
X125589827Y-80766353D01*
X125793268Y-80276413D01*
X125793731Y-79745914D01*
X125591146Y-79255620D01*
X125216353Y-78880173D01*
X124894881Y-78746686D01*
X125152929Y-78639800D01*
X125214583Y-78404188D01*
X124460000Y-77649605D01*
X123705417Y-78404188D01*
X123767071Y-78639800D01*
X124046311Y-78738083D01*
X123705620Y-78878854D01*
X123330173Y-79253647D01*
X123126732Y-79743587D01*
X123126269Y-80274086D01*
X123328854Y-80764380D01*
X123703647Y-81139827D01*
X124041446Y-81280093D01*
X123705620Y-81418854D01*
X123330173Y-81793647D01*
X123126732Y-82283587D01*
X123126269Y-82814086D01*
X123328854Y-83304380D01*
X123703647Y-83679827D01*
X124041446Y-83820093D01*
X123705620Y-83958854D01*
X123330173Y-84333647D01*
X123126732Y-84823587D01*
X123126269Y-85354086D01*
X123328854Y-85844380D01*
X123703647Y-86219827D01*
X124041446Y-86360093D01*
X123705620Y-86498854D01*
X123330173Y-86873647D01*
X123126732Y-87363587D01*
X123126269Y-87894086D01*
X123328854Y-88384380D01*
X123703647Y-88759827D01*
X124041446Y-88900093D01*
X123705620Y-89038854D01*
X123330173Y-89413647D01*
X123126732Y-89903587D01*
X123126269Y-90434086D01*
X123328854Y-90924380D01*
X123703647Y-91299827D01*
X124041446Y-91440093D01*
X123705620Y-91578854D01*
X123330173Y-91953647D01*
X123126732Y-92443587D01*
X123126621Y-92570616D01*
X123025120Y-92672118D01*
X122364718Y-93332520D01*
X122138971Y-93670374D01*
X122059699Y-94068901D01*
X122059699Y-95648713D01*
X118018408Y-99690003D01*
X117971146Y-99575620D01*
X117596353Y-99200173D01*
X117258553Y-99059906D01*
X117594380Y-98921146D01*
X117969827Y-98546353D01*
X118173268Y-98056413D01*
X118173731Y-97525914D01*
X117971146Y-97035620D01*
X117596353Y-96660173D01*
X117258553Y-96519906D01*
X117594380Y-96381146D01*
X117969827Y-96006353D01*
X118173268Y-95516413D01*
X118173731Y-94985914D01*
X117971146Y-94495620D01*
X117596353Y-94120173D01*
X117258553Y-93979906D01*
X117594380Y-93841146D01*
X117969827Y-93466353D01*
X118173268Y-92976413D01*
X118173731Y-92445914D01*
X117971146Y-91955620D01*
X117596353Y-91580173D01*
X117258553Y-91439906D01*
X117594380Y-91301146D01*
X117969827Y-90926353D01*
X118173268Y-90436413D01*
X118173731Y-89905914D01*
X117971146Y-89415620D01*
X117596353Y-89040173D01*
X117258553Y-88899906D01*
X117594380Y-88761146D01*
X117969827Y-88386353D01*
X118173268Y-87896413D01*
X118173731Y-87365914D01*
X117971146Y-86875620D01*
X117596353Y-86500173D01*
X117258553Y-86359906D01*
X117594380Y-86221146D01*
X117969827Y-85846353D01*
X118173268Y-85356413D01*
X118173731Y-84825914D01*
X117971146Y-84335620D01*
X117596353Y-83960173D01*
X117258553Y-83819906D01*
X117594380Y-83681146D01*
X117969827Y-83306353D01*
X118173268Y-82816413D01*
X118173731Y-82285914D01*
X117971146Y-81795620D01*
X117596353Y-81420173D01*
X117258553Y-81279906D01*
X117594380Y-81141146D01*
X117969827Y-80766353D01*
X118173268Y-80276413D01*
X118173731Y-79745914D01*
X117971146Y-79255620D01*
X117596353Y-78880173D01*
X117411704Y-78803500D01*
X117664809Y-78803500D01*
X117898198Y-78706827D01*
X118076827Y-78528199D01*
X118083785Y-78511400D01*
X118351300Y-78511400D01*
X118749826Y-78432128D01*
X118749827Y-78432128D01*
X119087681Y-78206381D01*
X120141563Y-77152499D01*
X123158062Y-77152499D01*
X123114073Y-77277480D01*
X123142852Y-77807199D01*
X123290200Y-78162929D01*
X123525812Y-78224583D01*
X124280395Y-77470000D01*
X124266252Y-77455857D01*
X124445857Y-77276252D01*
X124460000Y-77290395D01*
X124474142Y-77276252D01*
X124653747Y-77455857D01*
X124639605Y-77470000D01*
X125394188Y-78224583D01*
X125629800Y-78162929D01*
X125805927Y-77662520D01*
X125783048Y-77241400D01*
X127425374Y-77241400D01*
X127513647Y-77329827D01*
X128003587Y-77533268D01*
X128534086Y-77533731D01*
X129024380Y-77331146D01*
X129114282Y-77241400D01*
X137998638Y-77241400D01*
X138658600Y-77901362D01*
X138658600Y-85087345D01*
X138658600Y-85087345D01*
G37*
X138658600Y-85087345D02*
X137157345Y-86588600D01*
X136971083Y-86588600D01*
X136104977Y-86588600D01*
X136104977Y-84045903D01*
X136078389Y-83460431D01*
X135905490Y-83043017D01*
X135655413Y-82964192D01*
X134799605Y-83820000D01*
X135655413Y-84675808D01*
X135905490Y-84596983D01*
X136104977Y-84045903D01*
X136104977Y-86588600D01*
X135475808Y-86588600D01*
X135475808Y-84855413D01*
X134620000Y-83999605D01*
X134440395Y-84179210D01*
X134440395Y-83820000D01*
X133584587Y-82964192D01*
X133334510Y-83043017D01*
X133135023Y-83594097D01*
X133161611Y-84179569D01*
X133334510Y-84596983D01*
X133584587Y-84675808D01*
X134440395Y-83820000D01*
X134440395Y-84179210D01*
X133764192Y-84855413D01*
X133843017Y-85105490D01*
X134394097Y-85304977D01*
X134979569Y-85278389D01*
X135396983Y-85105490D01*
X135475808Y-84855413D01*
X135475808Y-86588600D01*
X135464625Y-86588600D01*
X135376353Y-86500173D01*
X134886413Y-86296732D01*
X134355914Y-86296269D01*
X133865620Y-86498854D01*
X133490173Y-86873647D01*
X133286732Y-87363587D01*
X133286621Y-87490616D01*
X132918638Y-87858600D01*
X132155927Y-87858600D01*
X132155927Y-86552520D01*
X132127148Y-86022801D01*
X131979800Y-85667071D01*
X131744188Y-85605417D01*
X131564583Y-85785022D01*
X131564583Y-85425812D01*
X131502929Y-85190200D01*
X131002520Y-85014073D01*
X130472801Y-85042852D01*
X130117071Y-85190200D01*
X130055417Y-85425812D01*
X130810000Y-86180395D01*
X131564583Y-85425812D01*
X131564583Y-85785022D01*
X130989605Y-86360000D01*
X131744188Y-87114583D01*
X131979800Y-87052929D01*
X132155927Y-86552520D01*
X132155927Y-87858600D01*
X132080000Y-87858600D01*
X131654625Y-87858600D01*
X131566353Y-87770173D01*
X131244881Y-87636686D01*
X131502929Y-87529800D01*
X131564583Y-87294188D01*
X130810000Y-86539605D01*
X130630395Y-86719210D01*
X130630395Y-86360000D01*
X129875812Y-85605417D01*
X129640200Y-85667071D01*
X129464073Y-86167480D01*
X129492852Y-86697199D01*
X129640200Y-87052929D01*
X129875812Y-87114583D01*
X130630395Y-86360000D01*
X130630395Y-86719210D01*
X130055417Y-87294188D01*
X130117071Y-87529800D01*
X130396311Y-87628083D01*
X130055620Y-87768854D01*
X129680173Y-88143647D01*
X129476732Y-88633587D01*
X129476269Y-89164086D01*
X129678854Y-89654380D01*
X129768600Y-89744282D01*
X129768600Y-91211400D01*
X129667691Y-91211400D01*
X129434302Y-91308073D01*
X129255673Y-91486701D01*
X129159000Y-91720090D01*
X129159000Y-91972709D01*
X129159000Y-93699909D01*
X129255673Y-93933298D01*
X129434301Y-94111927D01*
X129587779Y-94175500D01*
X129565585Y-94190330D01*
X129553377Y-94208600D01*
X125304625Y-94208600D01*
X125216353Y-94120173D01*
X124878553Y-93979906D01*
X125214380Y-93841146D01*
X125589827Y-93466353D01*
X125793268Y-92976413D01*
X125793731Y-92445914D01*
X125591146Y-91955620D01*
X125216353Y-91580173D01*
X124878553Y-91439906D01*
X125214380Y-91301146D01*
X125589827Y-90926353D01*
X125793268Y-90436413D01*
X125793731Y-89905914D01*
X125591146Y-89415620D01*
X125216353Y-89040173D01*
X124878553Y-88899906D01*
X125214380Y-88761146D01*
X125589827Y-88386353D01*
X125793268Y-87896413D01*
X125793378Y-87769383D01*
X128409140Y-85153621D01*
X128534086Y-85153731D01*
X129024380Y-84951146D01*
X129399827Y-84576353D01*
X129603268Y-84086413D01*
X129603378Y-83959383D01*
X131241362Y-82321400D01*
X133577979Y-82321400D01*
X133784409Y-82528190D01*
X133837995Y-82550441D01*
X133764192Y-82784587D01*
X134620000Y-83640395D01*
X135475808Y-82784587D01*
X135402129Y-82550836D01*
X135453411Y-82529647D01*
X135868190Y-82115591D01*
X136092944Y-81574323D01*
X136093455Y-80988248D01*
X135869647Y-80446589D01*
X135621407Y-80197916D01*
X135817898Y-80116527D01*
X135996527Y-79937899D01*
X136093200Y-79704510D01*
X136093200Y-79451891D01*
X136093200Y-77775491D01*
X135996527Y-77542102D01*
X135817899Y-77363473D01*
X135584510Y-77266800D01*
X135331891Y-77266800D01*
X133655491Y-77266800D01*
X133422102Y-77363473D01*
X133243473Y-77542101D01*
X133178648Y-77698600D01*
X130810000Y-77698600D01*
X130411473Y-77777872D01*
X130073619Y-78003619D01*
X125793027Y-82284210D01*
X125591146Y-81795620D01*
X125216353Y-81420173D01*
X124878553Y-81279906D01*
X125214380Y-81141146D01*
X125589827Y-80766353D01*
X125793268Y-80276413D01*
X125793731Y-79745914D01*
X125591146Y-79255620D01*
X125216353Y-78880173D01*
X124894881Y-78746686D01*
X125152929Y-78639800D01*
X125214583Y-78404188D01*
X124460000Y-77649605D01*
X123705417Y-78404188D01*
X123767071Y-78639800D01*
X124046311Y-78738083D01*
X123705620Y-78878854D01*
X123330173Y-79253647D01*
X123126732Y-79743587D01*
X123126269Y-80274086D01*
X123328854Y-80764380D01*
X123703647Y-81139827D01*
X124041446Y-81280093D01*
X123705620Y-81418854D01*
X123330173Y-81793647D01*
X123126732Y-82283587D01*
X123126269Y-82814086D01*
X123328854Y-83304380D01*
X123703647Y-83679827D01*
X124041446Y-83820093D01*
X123705620Y-83958854D01*
X123330173Y-84333647D01*
X123126732Y-84823587D01*
X123126269Y-85354086D01*
X123328854Y-85844380D01*
X123703647Y-86219827D01*
X124041446Y-86360093D01*
X123705620Y-86498854D01*
X123330173Y-86873647D01*
X123126732Y-87363587D01*
X123126269Y-87894086D01*
X123328854Y-88384380D01*
X123703647Y-88759827D01*
X124041446Y-88900093D01*
X123705620Y-89038854D01*
X123330173Y-89413647D01*
X123126732Y-89903587D01*
X123126269Y-90434086D01*
X123328854Y-90924380D01*
X123703647Y-91299827D01*
X124041446Y-91440093D01*
X123705620Y-91578854D01*
X123330173Y-91953647D01*
X123126732Y-92443587D01*
X123126621Y-92570616D01*
X123025120Y-92672118D01*
X122364718Y-93332520D01*
X122138971Y-93670374D01*
X122059699Y-94068901D01*
X122059699Y-95648713D01*
X118018408Y-99690003D01*
X117971146Y-99575620D01*
X117596353Y-99200173D01*
X117258553Y-99059906D01*
X117594380Y-98921146D01*
X117969827Y-98546353D01*
X118173268Y-98056413D01*
X118173731Y-97525914D01*
X117971146Y-97035620D01*
X117596353Y-96660173D01*
X117258553Y-96519906D01*
X117594380Y-96381146D01*
X117969827Y-96006353D01*
X118173268Y-95516413D01*
X118173731Y-94985914D01*
X117971146Y-94495620D01*
X117596353Y-94120173D01*
X117258553Y-93979906D01*
X117594380Y-93841146D01*
X117969827Y-93466353D01*
X118173268Y-92976413D01*
X118173731Y-92445914D01*
X117971146Y-91955620D01*
X117596353Y-91580173D01*
X117258553Y-91439906D01*
X117594380Y-91301146D01*
X117969827Y-90926353D01*
X118173268Y-90436413D01*
X118173731Y-89905914D01*
X117971146Y-89415620D01*
X117596353Y-89040173D01*
X117258553Y-88899906D01*
X117594380Y-88761146D01*
X117969827Y-88386353D01*
X118173268Y-87896413D01*
X118173731Y-87365914D01*
X117971146Y-86875620D01*
X117596353Y-86500173D01*
X117258553Y-86359906D01*
X117594380Y-86221146D01*
X117969827Y-85846353D01*
X118173268Y-85356413D01*
X118173731Y-84825914D01*
X117971146Y-84335620D01*
X117596353Y-83960173D01*
X117258553Y-83819906D01*
X117594380Y-83681146D01*
X117969827Y-83306353D01*
X118173268Y-82816413D01*
X118173731Y-82285914D01*
X117971146Y-81795620D01*
X117596353Y-81420173D01*
X117258553Y-81279906D01*
X117594380Y-81141146D01*
X117969827Y-80766353D01*
X118173268Y-80276413D01*
X118173731Y-79745914D01*
X117971146Y-79255620D01*
X117596353Y-78880173D01*
X117411704Y-78803500D01*
X117664809Y-78803500D01*
X117898198Y-78706827D01*
X118076827Y-78528199D01*
X118083785Y-78511400D01*
X118351300Y-78511400D01*
X118749826Y-78432128D01*
X118749827Y-78432128D01*
X119087681Y-78206381D01*
X120141563Y-77152499D01*
X123158062Y-77152499D01*
X123114073Y-77277480D01*
X123142852Y-77807199D01*
X123290200Y-78162929D01*
X123525812Y-78224583D01*
X124280395Y-77470000D01*
X124266252Y-77455857D01*
X124445857Y-77276252D01*
X124460000Y-77290395D01*
X124474142Y-77276252D01*
X124653747Y-77455857D01*
X124639605Y-77470000D01*
X125394188Y-78224583D01*
X125629800Y-78162929D01*
X125805927Y-77662520D01*
X125783048Y-77241400D01*
X127425374Y-77241400D01*
X127513647Y-77329827D01*
X128003587Y-77533268D01*
X128534086Y-77533731D01*
X129024380Y-77331146D01*
X129114282Y-77241400D01*
X137998638Y-77241400D01*
X138658600Y-77901362D01*
X138658600Y-85087345D01*
G36*
X142684500Y-105854500D02*
X138644977Y-105854500D01*
X138644977Y-101825903D01*
X138618389Y-101240431D01*
X138445490Y-100823017D01*
X138195413Y-100744192D01*
X138015808Y-100923797D01*
X138015808Y-100564587D01*
X137936983Y-100314510D01*
X137385903Y-100115023D01*
X136800431Y-100141611D01*
X136383017Y-100314510D01*
X136304192Y-100564587D01*
X137160000Y-101420395D01*
X138015808Y-100564587D01*
X138015808Y-100923797D01*
X137339605Y-101600000D01*
X138195413Y-102455808D01*
X138445490Y-102376983D01*
X138644977Y-101825903D01*
X138644977Y-105854500D01*
X138633455Y-105854500D01*
X138633455Y-103848248D01*
X138409647Y-103306589D01*
X137995591Y-102891810D01*
X137942004Y-102869558D01*
X138015808Y-102635413D01*
X137160000Y-101779605D01*
X136980395Y-101959210D01*
X136980395Y-101600000D01*
X136124587Y-100744192D01*
X135874510Y-100823017D01*
X135675023Y-101374097D01*
X135701611Y-101959569D01*
X135874510Y-102376983D01*
X136124587Y-102455808D01*
X136980395Y-101600000D01*
X136980395Y-101959210D01*
X136304192Y-102635413D01*
X136377870Y-102869163D01*
X136326589Y-102890353D01*
X136117978Y-103098600D01*
X132924625Y-103098600D01*
X132836353Y-103010173D01*
X132417358Y-102836190D01*
X132417358Y-100689026D01*
X132296217Y-100457000D01*
X130937000Y-100457000D01*
X130937000Y-101670924D01*
X131171913Y-101815184D01*
X131724320Y-101621954D01*
X132160732Y-101232036D01*
X132414709Y-100704791D01*
X132417358Y-100689026D01*
X132417358Y-102836190D01*
X132346413Y-102806732D01*
X131815914Y-102806269D01*
X131325620Y-103008854D01*
X130950173Y-103383647D01*
X130746732Y-103873587D01*
X130746269Y-104404086D01*
X130948854Y-104894380D01*
X131323647Y-105269827D01*
X131813587Y-105473268D01*
X132344086Y-105473731D01*
X132834380Y-105271146D01*
X132924282Y-105181400D01*
X136117979Y-105181400D01*
X136324409Y-105388190D01*
X136865677Y-105612944D01*
X137451752Y-105613455D01*
X137993411Y-105389647D01*
X138408190Y-104975591D01*
X138632944Y-104434323D01*
X138633455Y-103848248D01*
X138633455Y-105854500D01*
X130683000Y-105854500D01*
X130683000Y-101670924D01*
X130683000Y-100457000D01*
X129323783Y-100457000D01*
X129202642Y-100689026D01*
X129205291Y-100704791D01*
X129459268Y-101232036D01*
X129895680Y-101621954D01*
X130448087Y-101815184D01*
X130683000Y-101670924D01*
X130683000Y-105854500D01*
X114799436Y-105854500D01*
X123126728Y-97527207D01*
X123126269Y-98054086D01*
X123328854Y-98544380D01*
X123703647Y-98919827D01*
X124041446Y-99060093D01*
X123705620Y-99198854D01*
X123330173Y-99573647D01*
X123126732Y-100063587D01*
X123126269Y-100594086D01*
X123328854Y-101084380D01*
X123418600Y-101174282D01*
X123418600Y-103295374D01*
X123330173Y-103383647D01*
X123126732Y-103873587D01*
X123126269Y-104404086D01*
X123328854Y-104894380D01*
X123703647Y-105269827D01*
X124193587Y-105473268D01*
X124724086Y-105473731D01*
X125214380Y-105271146D01*
X125589827Y-104896353D01*
X125793268Y-104406413D01*
X125793731Y-103875914D01*
X125591146Y-103385620D01*
X125501400Y-103295717D01*
X125501400Y-101174625D01*
X125589827Y-101086353D01*
X125793268Y-100596413D01*
X125793731Y-100065914D01*
X125591146Y-99575620D01*
X125216353Y-99200173D01*
X124878553Y-99059906D01*
X125214380Y-98921146D01*
X125589827Y-98546353D01*
X125793268Y-98056413D01*
X125793731Y-97525914D01*
X125591146Y-97035620D01*
X125216353Y-96660173D01*
X124878553Y-96519906D01*
X125214380Y-96381146D01*
X125304282Y-96291400D01*
X129553377Y-96291400D01*
X129565585Y-96309670D01*
X129880365Y-96520000D01*
X129565585Y-96730330D01*
X129240729Y-97216511D01*
X129126655Y-97790000D01*
X129240729Y-98363489D01*
X129565585Y-98849670D01*
X129875069Y-99056460D01*
X129459268Y-99427964D01*
X129205291Y-99955209D01*
X129202642Y-99970974D01*
X129323783Y-100203000D01*
X130683000Y-100203000D01*
X130683000Y-100183000D01*
X130937000Y-100183000D01*
X130937000Y-100203000D01*
X132296217Y-100203000D01*
X132417358Y-99970974D01*
X132414709Y-99955209D01*
X132160732Y-99427964D01*
X131744930Y-99056460D01*
X132054415Y-98849670D01*
X132379271Y-98363489D01*
X132493345Y-97790000D01*
X132379271Y-97216511D01*
X132054415Y-96730330D01*
X131739634Y-96520000D01*
X132054415Y-96309670D01*
X132066622Y-96291400D01*
X133775374Y-96291400D01*
X133863647Y-96379827D01*
X134353587Y-96583268D01*
X134884086Y-96583731D01*
X135374380Y-96381146D01*
X135749827Y-96006353D01*
X135953268Y-95516413D01*
X135953731Y-94985914D01*
X135751146Y-94495620D01*
X135376353Y-94120173D01*
X134886413Y-93916732D01*
X134355914Y-93916269D01*
X133865620Y-94118854D01*
X133775717Y-94208600D01*
X132066622Y-94208600D01*
X132054415Y-94190330D01*
X132032219Y-94175499D01*
X132185698Y-94111927D01*
X132364327Y-93933299D01*
X132461000Y-93699910D01*
X132461000Y-93447291D01*
X132461000Y-91720091D01*
X132364327Y-91486702D01*
X132185699Y-91308073D01*
X131952310Y-91211400D01*
X131851400Y-91211400D01*
X131851400Y-89941400D01*
X132080000Y-89941400D01*
X133350000Y-89941400D01*
X133748526Y-89862128D01*
X133748527Y-89862128D01*
X134086381Y-89636381D01*
X134759140Y-88963621D01*
X134884086Y-88963731D01*
X135374380Y-88761146D01*
X135464282Y-88671400D01*
X136971083Y-88671400D01*
X137588707Y-88671400D01*
X137987233Y-88592128D01*
X137987234Y-88592128D01*
X138325088Y-88366381D01*
X140436381Y-86255088D01*
X140662128Y-85917234D01*
X140662128Y-85917233D01*
X140741400Y-85518707D01*
X140741400Y-77470000D01*
X140662128Y-77071474D01*
X140662128Y-77071473D01*
X140436381Y-76733619D01*
X139954484Y-76251722D01*
X139954484Y-62596677D01*
X139530019Y-61569394D01*
X138744740Y-60782743D01*
X137718199Y-60356486D01*
X136606677Y-60355516D01*
X135579394Y-60779981D01*
X134974006Y-61384312D01*
X135256921Y-60690873D01*
X135251001Y-59579366D01*
X134977058Y-58918010D01*
X135575260Y-59517257D01*
X136601801Y-59943514D01*
X137713323Y-59944484D01*
X138740606Y-59520019D01*
X139527257Y-58734740D01*
X139953514Y-57708199D01*
X139954484Y-56596677D01*
X139530019Y-55569394D01*
X138744740Y-54782743D01*
X137718199Y-54356486D01*
X136606677Y-54355516D01*
X135579394Y-54779981D01*
X134792743Y-55565260D01*
X134366486Y-56591801D01*
X134365516Y-57703323D01*
X134690081Y-58488830D01*
X134449790Y-58339815D01*
X134270185Y-58519420D01*
X134270185Y-58160210D01*
X134030037Y-57772965D01*
X133000873Y-57353079D01*
X131889366Y-57358999D01*
X130889963Y-57772965D01*
X130649815Y-58160210D01*
X132460000Y-59970395D01*
X134270185Y-58160210D01*
X134270185Y-58519420D01*
X132639605Y-60150000D01*
X132653747Y-60164142D01*
X132474142Y-60343747D01*
X132460000Y-60329605D01*
X132445857Y-60343747D01*
X132280395Y-60178285D01*
X132266252Y-60164142D01*
X132280395Y-60150000D01*
X130470210Y-58339815D01*
X130082965Y-58579963D01*
X129663079Y-59609127D01*
X129668999Y-60720634D01*
X130082965Y-61720037D01*
X130470208Y-61960183D01*
X130357593Y-62072799D01*
X130393394Y-62108600D01*
X129621362Y-62108600D01*
X129311400Y-61798638D01*
X129311400Y-57150000D01*
X129232129Y-56751474D01*
X129232128Y-56751473D01*
X129006381Y-56413619D01*
X125793621Y-53200859D01*
X125793731Y-53075914D01*
X125591146Y-52585620D01*
X125216353Y-52210173D01*
X124726413Y-52006732D01*
X124195914Y-52006269D01*
X123705620Y-52208854D01*
X123330173Y-52583647D01*
X123196686Y-52905118D01*
X123089800Y-52647071D01*
X122854188Y-52585417D01*
X122674583Y-52765022D01*
X122674583Y-52405812D01*
X122612929Y-52170200D01*
X122112520Y-51994073D01*
X121582801Y-52022852D01*
X121227071Y-52170200D01*
X121165417Y-52405812D01*
X121920000Y-53160395D01*
X122674583Y-52405812D01*
X122674583Y-52765022D01*
X122099605Y-53340000D01*
X122854188Y-54094583D01*
X123089800Y-54032929D01*
X123188083Y-53753688D01*
X123328854Y-54094380D01*
X123418600Y-54184282D01*
X123418600Y-57306200D01*
X123407707Y-57317073D01*
X123347327Y-57171302D01*
X123168699Y-56992673D01*
X122935310Y-56896000D01*
X122682691Y-56896000D01*
X122674583Y-56896000D01*
X122674583Y-54274188D01*
X121920000Y-53519605D01*
X121740395Y-53699210D01*
X121740395Y-53340000D01*
X120985812Y-52585417D01*
X120750200Y-52647071D01*
X120574073Y-53147480D01*
X120602852Y-53677199D01*
X120750200Y-54032929D01*
X120985812Y-54094583D01*
X121740395Y-53340000D01*
X121740395Y-53699210D01*
X121165417Y-54274188D01*
X121227071Y-54509800D01*
X121727480Y-54685927D01*
X122257199Y-54657148D01*
X122612929Y-54509800D01*
X122674583Y-54274188D01*
X122674583Y-56896000D01*
X122205750Y-56896000D01*
X122047000Y-57054750D01*
X122047000Y-58293000D01*
X122067000Y-58293000D01*
X122067000Y-58547000D01*
X122047000Y-58547000D01*
X122047000Y-59785250D01*
X122205750Y-59944000D01*
X122682691Y-59944000D01*
X122935310Y-59944000D01*
X123168699Y-59847327D01*
X123347327Y-59668698D01*
X123407681Y-59522988D01*
X123595596Y-59711231D01*
X124155528Y-59943735D01*
X124761812Y-59944264D01*
X125322149Y-59712738D01*
X125751231Y-59284404D01*
X125983735Y-58724472D01*
X125984264Y-58118188D01*
X125752738Y-57557851D01*
X125501400Y-57306074D01*
X125501400Y-55854162D01*
X127228600Y-57581362D01*
X127228600Y-62230000D01*
X127307872Y-62628527D01*
X127533619Y-62966381D01*
X128453619Y-63886381D01*
X128791473Y-64112128D01*
X128791474Y-64112128D01*
X129190000Y-64191400D01*
X134567185Y-64191400D01*
X134789981Y-64730606D01*
X135575260Y-65517257D01*
X136601801Y-65943514D01*
X137713323Y-65944484D01*
X138740606Y-65520019D01*
X139527257Y-64734740D01*
X139953514Y-63708199D01*
X139954484Y-62596677D01*
X139954484Y-76251722D01*
X139166381Y-75463619D01*
X138828527Y-75237872D01*
X138430000Y-75158600D01*
X129754977Y-75158600D01*
X129754977Y-73885903D01*
X129743455Y-73632186D01*
X129743455Y-70828248D01*
X129519647Y-70286589D01*
X129311400Y-70077978D01*
X129311400Y-68580000D01*
X129232128Y-68181474D01*
X129232128Y-68181473D01*
X129006381Y-67843619D01*
X128333621Y-67170859D01*
X128333731Y-67045914D01*
X128131146Y-66555620D01*
X127756353Y-66180173D01*
X127266413Y-65976732D01*
X126735914Y-65976269D01*
X126245620Y-66178854D01*
X125870173Y-66553647D01*
X125666732Y-67043587D01*
X125666269Y-67574086D01*
X125868854Y-68064380D01*
X126243647Y-68439827D01*
X126733587Y-68643268D01*
X126860616Y-68643378D01*
X127228600Y-69011362D01*
X127228600Y-70077979D01*
X127021810Y-70284409D01*
X126797056Y-70825677D01*
X126796545Y-71411752D01*
X127020353Y-71953411D01*
X127434409Y-72368190D01*
X127487995Y-72390441D01*
X127414192Y-72624587D01*
X128270000Y-73480395D01*
X129125808Y-72624587D01*
X129052129Y-72390836D01*
X129103411Y-72369647D01*
X129518190Y-71955591D01*
X129742944Y-71414323D01*
X129743455Y-70828248D01*
X129743455Y-73632186D01*
X129728389Y-73300431D01*
X129555490Y-72883017D01*
X129305413Y-72804192D01*
X128449605Y-73660000D01*
X129305413Y-74515808D01*
X129555490Y-74436983D01*
X129754977Y-73885903D01*
X129754977Y-75158600D01*
X129114625Y-75158600D01*
X129026353Y-75070173D01*
X128886335Y-75012032D01*
X129046983Y-74945490D01*
X129125808Y-74695413D01*
X128270000Y-73839605D01*
X128090395Y-74019210D01*
X128090395Y-73660000D01*
X127234587Y-72804192D01*
X126984510Y-72883017D01*
X126785023Y-73434097D01*
X126811611Y-74019569D01*
X126984510Y-74436983D01*
X127234587Y-74515808D01*
X128090395Y-73660000D01*
X128090395Y-74019210D01*
X127414192Y-74695413D01*
X127493017Y-74945490D01*
X127664206Y-75007459D01*
X127515620Y-75068854D01*
X127425717Y-75158600D01*
X125525210Y-75158600D01*
X125510800Y-75148971D01*
X125112273Y-75069699D01*
X123265927Y-75069699D01*
X123265927Y-72582520D01*
X123265927Y-63692520D01*
X123237148Y-63162801D01*
X123089800Y-62807071D01*
X122854188Y-62745417D01*
X122674583Y-62925022D01*
X122674583Y-62565812D01*
X122612929Y-62330200D01*
X122112520Y-62154073D01*
X121793000Y-62171432D01*
X121793000Y-59785250D01*
X121793000Y-58547000D01*
X121773000Y-58547000D01*
X121773000Y-58293000D01*
X121793000Y-58293000D01*
X121793000Y-57054750D01*
X121634250Y-56896000D01*
X121157309Y-56896000D01*
X120904690Y-56896000D01*
X120671301Y-56992673D01*
X120492673Y-57171302D01*
X120432318Y-57317011D01*
X120244404Y-57128769D01*
X119684472Y-56896265D01*
X119078188Y-56895736D01*
X118517851Y-57127262D01*
X118088769Y-57555596D01*
X117856265Y-58115528D01*
X117855736Y-58721812D01*
X118087262Y-59282149D01*
X118338600Y-59533925D01*
X118338600Y-62655374D01*
X118250173Y-62743647D01*
X118046732Y-63233587D01*
X118046269Y-63764086D01*
X118248854Y-64254380D01*
X118338600Y-64344282D01*
X118338600Y-66465374D01*
X118250173Y-66553647D01*
X118046732Y-67043587D01*
X118046269Y-67574086D01*
X118248854Y-68064380D01*
X118338600Y-68154282D01*
X118338600Y-71545374D01*
X118250173Y-71633647D01*
X118046732Y-72123587D01*
X118046269Y-72654086D01*
X118248854Y-73144380D01*
X118623647Y-73519827D01*
X119113587Y-73723268D01*
X119644086Y-73723731D01*
X120134380Y-73521146D01*
X120509827Y-73146353D01*
X120643313Y-72824881D01*
X120750200Y-73082929D01*
X120985812Y-73144583D01*
X121740395Y-72390000D01*
X120985812Y-71635417D01*
X120750200Y-71697071D01*
X120651916Y-71976311D01*
X120511146Y-71635620D01*
X120421400Y-71545717D01*
X120421400Y-68154625D01*
X120509827Y-68066353D01*
X120713268Y-67576413D01*
X120713731Y-67045914D01*
X120511146Y-66555620D01*
X120421400Y-66465717D01*
X120421400Y-64344625D01*
X120509827Y-64256353D01*
X120643313Y-63934881D01*
X120750200Y-64192929D01*
X120985812Y-64254583D01*
X121740395Y-63500000D01*
X120985812Y-62745417D01*
X120750200Y-62807071D01*
X120651916Y-63086311D01*
X120511146Y-62745620D01*
X120421400Y-62655717D01*
X120421400Y-59533799D01*
X120432292Y-59522926D01*
X120492673Y-59668698D01*
X120671301Y-59847327D01*
X120904690Y-59944000D01*
X121157309Y-59944000D01*
X121634250Y-59944000D01*
X121793000Y-59785250D01*
X121793000Y-62171432D01*
X121582801Y-62182852D01*
X121227071Y-62330200D01*
X121165417Y-62565812D01*
X121920000Y-63320395D01*
X122674583Y-62565812D01*
X122674583Y-62925022D01*
X122099605Y-63500000D01*
X122854188Y-64254583D01*
X123089800Y-64192929D01*
X123265927Y-63692520D01*
X123265927Y-72582520D01*
X123237148Y-72052801D01*
X123089800Y-71697071D01*
X122854188Y-71635417D01*
X122674583Y-71815022D01*
X122674583Y-71455812D01*
X122674583Y-64434188D01*
X121920000Y-63679605D01*
X121165417Y-64434188D01*
X121227071Y-64669800D01*
X121727480Y-64845927D01*
X122257199Y-64817148D01*
X122612929Y-64669800D01*
X122674583Y-64434188D01*
X122674583Y-71455812D01*
X122612929Y-71220200D01*
X122112520Y-71044073D01*
X121582801Y-71072852D01*
X121227071Y-71220200D01*
X121165417Y-71455812D01*
X121920000Y-72210395D01*
X122674583Y-71455812D01*
X122674583Y-71815022D01*
X122099605Y-72390000D01*
X122854188Y-73144583D01*
X123089800Y-73082929D01*
X123265927Y-72582520D01*
X123265927Y-75069699D01*
X122674583Y-75069699D01*
X122674583Y-73324188D01*
X121920000Y-72569605D01*
X121165417Y-73324188D01*
X121227071Y-73559800D01*
X121727480Y-73735927D01*
X122257199Y-73707148D01*
X122612929Y-73559800D01*
X122674583Y-73324188D01*
X122674583Y-75069699D01*
X119710201Y-75069699D01*
X119311674Y-75148971D01*
X118973820Y-75374718D01*
X118006781Y-76341756D01*
X117898199Y-76233173D01*
X117664810Y-76136500D01*
X117412191Y-76136500D01*
X117054977Y-76136500D01*
X117054977Y-53565903D01*
X117028389Y-52980431D01*
X116855490Y-52563017D01*
X116605413Y-52484192D01*
X116425808Y-52663797D01*
X116425808Y-52304587D01*
X116346983Y-52054510D01*
X115795903Y-51855023D01*
X115210431Y-51881611D01*
X114793017Y-52054510D01*
X114714192Y-52304587D01*
X115570000Y-53160395D01*
X116425808Y-52304587D01*
X116425808Y-52663797D01*
X115749605Y-53340000D01*
X116605413Y-54195808D01*
X116855490Y-54116983D01*
X117054977Y-53565903D01*
X117054977Y-76136500D01*
X117043200Y-76136500D01*
X117043200Y-56844510D01*
X117043200Y-56591891D01*
X117043200Y-54915491D01*
X116946527Y-54682102D01*
X116767899Y-54503473D01*
X116534510Y-54406800D01*
X116415914Y-54406800D01*
X116425808Y-54375413D01*
X115570000Y-53519605D01*
X115390395Y-53699210D01*
X115390395Y-53340000D01*
X114534587Y-52484192D01*
X114284510Y-52563017D01*
X114085023Y-53114097D01*
X114111611Y-53699569D01*
X114284510Y-54116983D01*
X114534587Y-54195808D01*
X115390395Y-53340000D01*
X115390395Y-53699210D01*
X114714192Y-54375413D01*
X114724085Y-54406800D01*
X114605491Y-54406800D01*
X114372102Y-54503473D01*
X114193473Y-54682101D01*
X114096800Y-54915490D01*
X114096800Y-55168109D01*
X114096800Y-56844509D01*
X114193473Y-57077898D01*
X114372101Y-57256527D01*
X114605490Y-57353200D01*
X114858109Y-57353200D01*
X116534509Y-57353200D01*
X116767898Y-57256527D01*
X116946527Y-57077899D01*
X117043200Y-56844510D01*
X117043200Y-76136500D01*
X116915927Y-76136500D01*
X116915927Y-71312520D01*
X116887148Y-70782801D01*
X116739800Y-70427071D01*
X116504188Y-70365417D01*
X116324583Y-70545022D01*
X116324583Y-70185812D01*
X116262929Y-69950200D01*
X115762520Y-69774073D01*
X115232801Y-69802852D01*
X114877071Y-69950200D01*
X114815417Y-70185812D01*
X115570000Y-70940395D01*
X116324583Y-70185812D01*
X116324583Y-70545022D01*
X115749605Y-71120000D01*
X116504188Y-71874583D01*
X116739800Y-71812929D01*
X116915927Y-71312520D01*
X116915927Y-76136500D01*
X116324583Y-76136500D01*
X116324583Y-72054188D01*
X115570000Y-71299605D01*
X115390395Y-71479210D01*
X115390395Y-71120000D01*
X114635812Y-70365417D01*
X114400200Y-70427071D01*
X114224073Y-70927480D01*
X114252852Y-71457199D01*
X114400200Y-71812929D01*
X114635812Y-71874583D01*
X115390395Y-71120000D01*
X115390395Y-71479210D01*
X114815417Y-72054188D01*
X114877071Y-72289800D01*
X115377480Y-72465927D01*
X115907199Y-72437148D01*
X116262929Y-72289800D01*
X116324583Y-72054188D01*
X116324583Y-76136500D01*
X116015191Y-76136500D01*
X115781802Y-76233173D01*
X115603173Y-76411801D01*
X115596214Y-76428600D01*
X111532020Y-76428600D01*
X111325591Y-76221810D01*
X110784323Y-75997056D01*
X110704977Y-75996986D01*
X110704977Y-56105903D01*
X110678389Y-55520431D01*
X110505490Y-55103017D01*
X110255413Y-55024192D01*
X110075808Y-55203797D01*
X110075808Y-54844587D01*
X109996983Y-54594510D01*
X109445903Y-54395023D01*
X108860431Y-54421611D01*
X108443017Y-54594510D01*
X108364192Y-54844587D01*
X109220000Y-55700395D01*
X110075808Y-54844587D01*
X110075808Y-55203797D01*
X109399605Y-55880000D01*
X110255413Y-56735808D01*
X110505490Y-56656983D01*
X110704977Y-56105903D01*
X110704977Y-75996986D01*
X110693455Y-75996976D01*
X110693455Y-58128248D01*
X110469647Y-57586589D01*
X110055591Y-57171810D01*
X110002004Y-57149558D01*
X110075808Y-56915413D01*
X109220000Y-56059605D01*
X109040395Y-56239210D01*
X109040395Y-55880000D01*
X108184587Y-55024192D01*
X107934510Y-55103017D01*
X107735023Y-55654097D01*
X107761611Y-56239569D01*
X107934510Y-56656983D01*
X108184587Y-56735808D01*
X109040395Y-55880000D01*
X109040395Y-56239210D01*
X108364192Y-56915413D01*
X108437870Y-57149163D01*
X108386589Y-57170353D01*
X107971810Y-57584409D01*
X107747056Y-58125677D01*
X107746545Y-58711752D01*
X107970353Y-59253411D01*
X108218592Y-59502083D01*
X108022102Y-59583473D01*
X107843473Y-59762101D01*
X107746800Y-59995490D01*
X107746800Y-60248109D01*
X107746800Y-61924509D01*
X107843473Y-62157898D01*
X108022101Y-62336527D01*
X108255490Y-62433200D01*
X108508109Y-62433200D01*
X110184509Y-62433200D01*
X110417898Y-62336527D01*
X110596527Y-62157899D01*
X110693200Y-61924510D01*
X110693200Y-61671891D01*
X110693200Y-59995491D01*
X110596527Y-59762102D01*
X110417899Y-59583473D01*
X110221308Y-59502042D01*
X110468190Y-59255591D01*
X110692944Y-58714323D01*
X110693455Y-58128248D01*
X110693455Y-75996976D01*
X110198248Y-75996545D01*
X109656589Y-76220353D01*
X109241810Y-76634409D01*
X109220224Y-76686391D01*
X109199647Y-76636589D01*
X108991400Y-76427978D01*
X108991400Y-71964625D01*
X109079827Y-71876353D01*
X109283268Y-71386413D01*
X109283731Y-70855914D01*
X109081146Y-70365620D01*
X108706353Y-69990173D01*
X108216413Y-69786732D01*
X107685914Y-69786269D01*
X107195620Y-69988854D01*
X106820173Y-70363647D01*
X106616732Y-70853587D01*
X106616269Y-71384086D01*
X106818854Y-71874380D01*
X106908600Y-71964282D01*
X106908600Y-76427979D01*
X106701810Y-76634409D01*
X106477056Y-77175677D01*
X106476545Y-77761752D01*
X106700353Y-78303411D01*
X107114409Y-78718190D01*
X107655677Y-78942944D01*
X107950439Y-78943201D01*
X109753619Y-80746381D01*
X110091473Y-80972128D01*
X110091474Y-80972128D01*
X110490000Y-81051400D01*
X115995374Y-81051400D01*
X116083647Y-81139827D01*
X116421446Y-81280093D01*
X116085620Y-81418854D01*
X115995717Y-81508600D01*
X109391350Y-81508600D01*
X109326527Y-81352102D01*
X109147899Y-81173473D01*
X108914510Y-81076800D01*
X108661891Y-81076800D01*
X106985491Y-81076800D01*
X106752102Y-81173473D01*
X106573473Y-81352101D01*
X106476800Y-81585490D01*
X106476800Y-81838109D01*
X106476800Y-83514509D01*
X106573473Y-83747898D01*
X106752101Y-83926527D01*
X106948691Y-84007957D01*
X106701810Y-84254409D01*
X106477056Y-84795677D01*
X106476545Y-85381752D01*
X106700353Y-85923411D01*
X107114409Y-86338190D01*
X107167995Y-86360441D01*
X107094192Y-86594587D01*
X107950000Y-87450395D01*
X108805808Y-86594587D01*
X108732129Y-86360836D01*
X108783411Y-86339647D01*
X108992021Y-86131400D01*
X115995374Y-86131400D01*
X116083647Y-86219827D01*
X116421446Y-86360093D01*
X116085620Y-86498854D01*
X115710173Y-86873647D01*
X115506732Y-87363587D01*
X115506269Y-87894086D01*
X115708854Y-88384380D01*
X116083647Y-88759827D01*
X116421446Y-88900093D01*
X116085620Y-89038854D01*
X115710173Y-89413647D01*
X115506732Y-89903587D01*
X115506269Y-90434086D01*
X115708854Y-90924380D01*
X116083647Y-91299827D01*
X116421446Y-91440093D01*
X116085620Y-91578854D01*
X115710173Y-91953647D01*
X115506732Y-92443587D01*
X115506269Y-92974086D01*
X115708854Y-93464380D01*
X116083647Y-93839827D01*
X116421446Y-93980093D01*
X116085620Y-94118854D01*
X115710173Y-94493647D01*
X115506732Y-94983587D01*
X115506269Y-95514086D01*
X115708854Y-96004380D01*
X116083647Y-96379827D01*
X116421446Y-96520093D01*
X116085620Y-96658854D01*
X115710173Y-97033647D01*
X115506732Y-97523587D01*
X115506621Y-97650616D01*
X115138638Y-98018600D01*
X108992020Y-98018600D01*
X108785591Y-97811810D01*
X108733608Y-97790224D01*
X108783411Y-97769647D01*
X109198190Y-97355591D01*
X109422944Y-96814323D01*
X109423201Y-96519560D01*
X115036381Y-90906381D01*
X115262128Y-90568527D01*
X115262128Y-90568526D01*
X115341400Y-90170000D01*
X115341400Y-89206972D01*
X115379313Y-89115668D01*
X115379687Y-88686216D01*
X115215689Y-88289311D01*
X114912286Y-87985378D01*
X114515668Y-87820687D01*
X114086216Y-87820313D01*
X113689311Y-87984311D01*
X113385378Y-88287714D01*
X113220687Y-88684332D01*
X113220313Y-89113784D01*
X113258600Y-89206445D01*
X113258600Y-89738638D01*
X109434977Y-93562260D01*
X109434977Y-87855903D01*
X109408389Y-87270431D01*
X109235490Y-86853017D01*
X108985413Y-86774192D01*
X108129605Y-87630000D01*
X108985413Y-88485808D01*
X109235490Y-88406983D01*
X109434977Y-87855903D01*
X109434977Y-93562260D01*
X108805808Y-94191429D01*
X108805808Y-88665413D01*
X107950000Y-87809605D01*
X107770395Y-87989210D01*
X107770395Y-87630000D01*
X106914587Y-86774192D01*
X106664510Y-86853017D01*
X106465023Y-87404097D01*
X106491611Y-87989569D01*
X106664510Y-88406983D01*
X106914587Y-88485808D01*
X107770395Y-87630000D01*
X107770395Y-87989210D01*
X107094192Y-88665413D01*
X107173017Y-88915490D01*
X107724097Y-89114977D01*
X108309569Y-89088389D01*
X108726983Y-88915490D01*
X108805808Y-88665413D01*
X108805808Y-94191429D01*
X107950438Y-95046799D01*
X107658248Y-95046545D01*
X107116589Y-95270353D01*
X106867916Y-95518592D01*
X106786527Y-95322102D01*
X106607899Y-95143473D01*
X106374510Y-95046800D01*
X106121891Y-95046800D01*
X105695750Y-95046800D01*
X105537000Y-95205550D01*
X105537000Y-96393000D01*
X105557000Y-96393000D01*
X105557000Y-96647000D01*
X105537000Y-96647000D01*
X105537000Y-96667000D01*
X105283000Y-96667000D01*
X105283000Y-96647000D01*
X105283000Y-96393000D01*
X105283000Y-95205550D01*
X105124250Y-95046800D01*
X104698109Y-95046800D01*
X104445490Y-95046800D01*
X104212101Y-95143473D01*
X104033473Y-95322102D01*
X103936800Y-95555491D01*
X103936800Y-96234250D01*
X104095550Y-96393000D01*
X105283000Y-96393000D01*
X105283000Y-96647000D01*
X104095550Y-96647000D01*
X103936800Y-96805750D01*
X103936800Y-97484509D01*
X104033473Y-97717898D01*
X104212101Y-97896527D01*
X104408691Y-97977957D01*
X104161810Y-98224409D01*
X103937056Y-98765677D01*
X103936545Y-99351752D01*
X104160353Y-99893411D01*
X104574409Y-100308190D01*
X104626391Y-100329775D01*
X104576589Y-100350353D01*
X104161810Y-100764409D01*
X103937056Y-101305677D01*
X103936545Y-101891752D01*
X104160353Y-102433411D01*
X104574409Y-102848190D01*
X104626391Y-102869775D01*
X104576589Y-102890353D01*
X104161810Y-103304409D01*
X103937056Y-103845677D01*
X103936545Y-104431752D01*
X104160353Y-104973411D01*
X104574409Y-105388190D01*
X105115677Y-105612944D01*
X105410439Y-105613201D01*
X105651738Y-105854500D01*
X103695500Y-105854500D01*
X103695500Y-49085500D01*
X142684500Y-49085500D01*
X142684500Y-105854500D01*
X142684500Y-105854500D01*
G37*
X142684500Y-105854500D02*
X138644977Y-105854500D01*
X138644977Y-101825903D01*
X138618389Y-101240431D01*
X138445490Y-100823017D01*
X138195413Y-100744192D01*
X138015808Y-100923797D01*
X138015808Y-100564587D01*
X137936983Y-100314510D01*
X137385903Y-100115023D01*
X136800431Y-100141611D01*
X136383017Y-100314510D01*
X136304192Y-100564587D01*
X137160000Y-101420395D01*
X138015808Y-100564587D01*
X138015808Y-100923797D01*
X137339605Y-101600000D01*
X138195413Y-102455808D01*
X138445490Y-102376983D01*
X138644977Y-101825903D01*
X138644977Y-105854500D01*
X138633455Y-105854500D01*
X138633455Y-103848248D01*
X138409647Y-103306589D01*
X137995591Y-102891810D01*
X137942004Y-102869558D01*
X138015808Y-102635413D01*
X137160000Y-101779605D01*
X136980395Y-101959210D01*
X136980395Y-101600000D01*
X136124587Y-100744192D01*
X135874510Y-100823017D01*
X135675023Y-101374097D01*
X135701611Y-101959569D01*
X135874510Y-102376983D01*
X136124587Y-102455808D01*
X136980395Y-101600000D01*
X136980395Y-101959210D01*
X136304192Y-102635413D01*
X136377870Y-102869163D01*
X136326589Y-102890353D01*
X136117978Y-103098600D01*
X132924625Y-103098600D01*
X132836353Y-103010173D01*
X132417358Y-102836190D01*
X132417358Y-100689026D01*
X132296217Y-100457000D01*
X130937000Y-100457000D01*
X130937000Y-101670924D01*
X131171913Y-101815184D01*
X131724320Y-101621954D01*
X132160732Y-101232036D01*
X132414709Y-100704791D01*
X132417358Y-100689026D01*
X132417358Y-102836190D01*
X132346413Y-102806732D01*
X131815914Y-102806269D01*
X131325620Y-103008854D01*
X130950173Y-103383647D01*
X130746732Y-103873587D01*
X130746269Y-104404086D01*
X130948854Y-104894380D01*
X131323647Y-105269827D01*
X131813587Y-105473268D01*
X132344086Y-105473731D01*
X132834380Y-105271146D01*
X132924282Y-105181400D01*
X136117979Y-105181400D01*
X136324409Y-105388190D01*
X136865677Y-105612944D01*
X137451752Y-105613455D01*
X137993411Y-105389647D01*
X138408190Y-104975591D01*
X138632944Y-104434323D01*
X138633455Y-103848248D01*
X138633455Y-105854500D01*
X130683000Y-105854500D01*
X130683000Y-101670924D01*
X130683000Y-100457000D01*
X129323783Y-100457000D01*
X129202642Y-100689026D01*
X129205291Y-100704791D01*
X129459268Y-101232036D01*
X129895680Y-101621954D01*
X130448087Y-101815184D01*
X130683000Y-101670924D01*
X130683000Y-105854500D01*
X114799436Y-105854500D01*
X123126728Y-97527207D01*
X123126269Y-98054086D01*
X123328854Y-98544380D01*
X123703647Y-98919827D01*
X124041446Y-99060093D01*
X123705620Y-99198854D01*
X123330173Y-99573647D01*
X123126732Y-100063587D01*
X123126269Y-100594086D01*
X123328854Y-101084380D01*
X123418600Y-101174282D01*
X123418600Y-103295374D01*
X123330173Y-103383647D01*
X123126732Y-103873587D01*
X123126269Y-104404086D01*
X123328854Y-104894380D01*
X123703647Y-105269827D01*
X124193587Y-105473268D01*
X124724086Y-105473731D01*
X125214380Y-105271146D01*
X125589827Y-104896353D01*
X125793268Y-104406413D01*
X125793731Y-103875914D01*
X125591146Y-103385620D01*
X125501400Y-103295717D01*
X125501400Y-101174625D01*
X125589827Y-101086353D01*
X125793268Y-100596413D01*
X125793731Y-100065914D01*
X125591146Y-99575620D01*
X125216353Y-99200173D01*
X124878553Y-99059906D01*
X125214380Y-98921146D01*
X125589827Y-98546353D01*
X125793268Y-98056413D01*
X125793731Y-97525914D01*
X125591146Y-97035620D01*
X125216353Y-96660173D01*
X124878553Y-96519906D01*
X125214380Y-96381146D01*
X125304282Y-96291400D01*
X129553377Y-96291400D01*
X129565585Y-96309670D01*
X129880365Y-96520000D01*
X129565585Y-96730330D01*
X129240729Y-97216511D01*
X129126655Y-97790000D01*
X129240729Y-98363489D01*
X129565585Y-98849670D01*
X129875069Y-99056460D01*
X129459268Y-99427964D01*
X129205291Y-99955209D01*
X129202642Y-99970974D01*
X129323783Y-100203000D01*
X130683000Y-100203000D01*
X130683000Y-100183000D01*
X130937000Y-100183000D01*
X130937000Y-100203000D01*
X132296217Y-100203000D01*
X132417358Y-99970974D01*
X132414709Y-99955209D01*
X132160732Y-99427964D01*
X131744930Y-99056460D01*
X132054415Y-98849670D01*
X132379271Y-98363489D01*
X132493345Y-97790000D01*
X132379271Y-97216511D01*
X132054415Y-96730330D01*
X131739634Y-96520000D01*
X132054415Y-96309670D01*
X132066622Y-96291400D01*
X133775374Y-96291400D01*
X133863647Y-96379827D01*
X134353587Y-96583268D01*
X134884086Y-96583731D01*
X135374380Y-96381146D01*
X135749827Y-96006353D01*
X135953268Y-95516413D01*
X135953731Y-94985914D01*
X135751146Y-94495620D01*
X135376353Y-94120173D01*
X134886413Y-93916732D01*
X134355914Y-93916269D01*
X133865620Y-94118854D01*
X133775717Y-94208600D01*
X132066622Y-94208600D01*
X132054415Y-94190330D01*
X132032219Y-94175499D01*
X132185698Y-94111927D01*
X132364327Y-93933299D01*
X132461000Y-93699910D01*
X132461000Y-93447291D01*
X132461000Y-91720091D01*
X132364327Y-91486702D01*
X132185699Y-91308073D01*
X131952310Y-91211400D01*
X131851400Y-91211400D01*
X131851400Y-89941400D01*
X132080000Y-89941400D01*
X133350000Y-89941400D01*
X133748526Y-89862128D01*
X133748527Y-89862128D01*
X134086381Y-89636381D01*
X134759140Y-88963621D01*
X134884086Y-88963731D01*
X135374380Y-88761146D01*
X135464282Y-88671400D01*
X136971083Y-88671400D01*
X137588707Y-88671400D01*
X137987233Y-88592128D01*
X137987234Y-88592128D01*
X138325088Y-88366381D01*
X140436381Y-86255088D01*
X140662128Y-85917234D01*
X140662128Y-85917233D01*
X140741400Y-85518707D01*
X140741400Y-77470000D01*
X140662128Y-77071474D01*
X140662128Y-77071473D01*
X140436381Y-76733619D01*
X139954484Y-76251722D01*
X139954484Y-62596677D01*
X139530019Y-61569394D01*
X138744740Y-60782743D01*
X137718199Y-60356486D01*
X136606677Y-60355516D01*
X135579394Y-60779981D01*
X134974006Y-61384312D01*
X135256921Y-60690873D01*
X135251001Y-59579366D01*
X134977058Y-58918010D01*
X135575260Y-59517257D01*
X136601801Y-59943514D01*
X137713323Y-59944484D01*
X138740606Y-59520019D01*
X139527257Y-58734740D01*
X139953514Y-57708199D01*
X139954484Y-56596677D01*
X139530019Y-55569394D01*
X138744740Y-54782743D01*
X137718199Y-54356486D01*
X136606677Y-54355516D01*
X135579394Y-54779981D01*
X134792743Y-55565260D01*
X134366486Y-56591801D01*
X134365516Y-57703323D01*
X134690081Y-58488830D01*
X134449790Y-58339815D01*
X134270185Y-58519420D01*
X134270185Y-58160210D01*
X134030037Y-57772965D01*
X133000873Y-57353079D01*
X131889366Y-57358999D01*
X130889963Y-57772965D01*
X130649815Y-58160210D01*
X132460000Y-59970395D01*
X134270185Y-58160210D01*
X134270185Y-58519420D01*
X132639605Y-60150000D01*
X132653747Y-60164142D01*
X132474142Y-60343747D01*
X132460000Y-60329605D01*
X132445857Y-60343747D01*
X132280395Y-60178285D01*
X132266252Y-60164142D01*
X132280395Y-60150000D01*
X130470210Y-58339815D01*
X130082965Y-58579963D01*
X129663079Y-59609127D01*
X129668999Y-60720634D01*
X130082965Y-61720037D01*
X130470208Y-61960183D01*
X130357593Y-62072799D01*
X130393394Y-62108600D01*
X129621362Y-62108600D01*
X129311400Y-61798638D01*
X129311400Y-57150000D01*
X129232129Y-56751474D01*
X129232128Y-56751473D01*
X129006381Y-56413619D01*
X125793621Y-53200859D01*
X125793731Y-53075914D01*
X125591146Y-52585620D01*
X125216353Y-52210173D01*
X124726413Y-52006732D01*
X124195914Y-52006269D01*
X123705620Y-52208854D01*
X123330173Y-52583647D01*
X123196686Y-52905118D01*
X123089800Y-52647071D01*
X122854188Y-52585417D01*
X122674583Y-52765022D01*
X122674583Y-52405812D01*
X122612929Y-52170200D01*
X122112520Y-51994073D01*
X121582801Y-52022852D01*
X121227071Y-52170200D01*
X121165417Y-52405812D01*
X121920000Y-53160395D01*
X122674583Y-52405812D01*
X122674583Y-52765022D01*
X122099605Y-53340000D01*
X122854188Y-54094583D01*
X123089800Y-54032929D01*
X123188083Y-53753688D01*
X123328854Y-54094380D01*
X123418600Y-54184282D01*
X123418600Y-57306200D01*
X123407707Y-57317073D01*
X123347327Y-57171302D01*
X123168699Y-56992673D01*
X122935310Y-56896000D01*
X122682691Y-56896000D01*
X122674583Y-56896000D01*
X122674583Y-54274188D01*
X121920000Y-53519605D01*
X121740395Y-53699210D01*
X121740395Y-53340000D01*
X120985812Y-52585417D01*
X120750200Y-52647071D01*
X120574073Y-53147480D01*
X120602852Y-53677199D01*
X120750200Y-54032929D01*
X120985812Y-54094583D01*
X121740395Y-53340000D01*
X121740395Y-53699210D01*
X121165417Y-54274188D01*
X121227071Y-54509800D01*
X121727480Y-54685927D01*
X122257199Y-54657148D01*
X122612929Y-54509800D01*
X122674583Y-54274188D01*
X122674583Y-56896000D01*
X122205750Y-56896000D01*
X122047000Y-57054750D01*
X122047000Y-58293000D01*
X122067000Y-58293000D01*
X122067000Y-58547000D01*
X122047000Y-58547000D01*
X122047000Y-59785250D01*
X122205750Y-59944000D01*
X122682691Y-59944000D01*
X122935310Y-59944000D01*
X123168699Y-59847327D01*
X123347327Y-59668698D01*
X123407681Y-59522988D01*
X123595596Y-59711231D01*
X124155528Y-59943735D01*
X124761812Y-59944264D01*
X125322149Y-59712738D01*
X125751231Y-59284404D01*
X125983735Y-58724472D01*
X125984264Y-58118188D01*
X125752738Y-57557851D01*
X125501400Y-57306074D01*
X125501400Y-55854162D01*
X127228600Y-57581362D01*
X127228600Y-62230000D01*
X127307872Y-62628527D01*
X127533619Y-62966381D01*
X128453619Y-63886381D01*
X128791473Y-64112128D01*
X128791474Y-64112128D01*
X129190000Y-64191400D01*
X134567185Y-64191400D01*
X134789981Y-64730606D01*
X135575260Y-65517257D01*
X136601801Y-65943514D01*
X137713323Y-65944484D01*
X138740606Y-65520019D01*
X139527257Y-64734740D01*
X139953514Y-63708199D01*
X139954484Y-62596677D01*
X139954484Y-76251722D01*
X139166381Y-75463619D01*
X138828527Y-75237872D01*
X138430000Y-75158600D01*
X129754977Y-75158600D01*
X129754977Y-73885903D01*
X129743455Y-73632186D01*
X129743455Y-70828248D01*
X129519647Y-70286589D01*
X129311400Y-70077978D01*
X129311400Y-68580000D01*
X129232128Y-68181474D01*
X129232128Y-68181473D01*
X129006381Y-67843619D01*
X128333621Y-67170859D01*
X128333731Y-67045914D01*
X128131146Y-66555620D01*
X127756353Y-66180173D01*
X127266413Y-65976732D01*
X126735914Y-65976269D01*
X126245620Y-66178854D01*
X125870173Y-66553647D01*
X125666732Y-67043587D01*
X125666269Y-67574086D01*
X125868854Y-68064380D01*
X126243647Y-68439827D01*
X126733587Y-68643268D01*
X126860616Y-68643378D01*
X127228600Y-69011362D01*
X127228600Y-70077979D01*
X127021810Y-70284409D01*
X126797056Y-70825677D01*
X126796545Y-71411752D01*
X127020353Y-71953411D01*
X127434409Y-72368190D01*
X127487995Y-72390441D01*
X127414192Y-72624587D01*
X128270000Y-73480395D01*
X129125808Y-72624587D01*
X129052129Y-72390836D01*
X129103411Y-72369647D01*
X129518190Y-71955591D01*
X129742944Y-71414323D01*
X129743455Y-70828248D01*
X129743455Y-73632186D01*
X129728389Y-73300431D01*
X129555490Y-72883017D01*
X129305413Y-72804192D01*
X128449605Y-73660000D01*
X129305413Y-74515808D01*
X129555490Y-74436983D01*
X129754977Y-73885903D01*
X129754977Y-75158600D01*
X129114625Y-75158600D01*
X129026353Y-75070173D01*
X128886335Y-75012032D01*
X129046983Y-74945490D01*
X129125808Y-74695413D01*
X128270000Y-73839605D01*
X128090395Y-74019210D01*
X128090395Y-73660000D01*
X127234587Y-72804192D01*
X126984510Y-72883017D01*
X126785023Y-73434097D01*
X126811611Y-74019569D01*
X126984510Y-74436983D01*
X127234587Y-74515808D01*
X128090395Y-73660000D01*
X128090395Y-74019210D01*
X127414192Y-74695413D01*
X127493017Y-74945490D01*
X127664206Y-75007459D01*
X127515620Y-75068854D01*
X127425717Y-75158600D01*
X125525210Y-75158600D01*
X125510800Y-75148971D01*
X125112273Y-75069699D01*
X123265927Y-75069699D01*
X123265927Y-72582520D01*
X123265927Y-63692520D01*
X123237148Y-63162801D01*
X123089800Y-62807071D01*
X122854188Y-62745417D01*
X122674583Y-62925022D01*
X122674583Y-62565812D01*
X122612929Y-62330200D01*
X122112520Y-62154073D01*
X121793000Y-62171432D01*
X121793000Y-59785250D01*
X121793000Y-58547000D01*
X121773000Y-58547000D01*
X121773000Y-58293000D01*
X121793000Y-58293000D01*
X121793000Y-57054750D01*
X121634250Y-56896000D01*
X121157309Y-56896000D01*
X120904690Y-56896000D01*
X120671301Y-56992673D01*
X120492673Y-57171302D01*
X120432318Y-57317011D01*
X120244404Y-57128769D01*
X119684472Y-56896265D01*
X119078188Y-56895736D01*
X118517851Y-57127262D01*
X118088769Y-57555596D01*
X117856265Y-58115528D01*
X117855736Y-58721812D01*
X118087262Y-59282149D01*
X118338600Y-59533925D01*
X118338600Y-62655374D01*
X118250173Y-62743647D01*
X118046732Y-63233587D01*
X118046269Y-63764086D01*
X118248854Y-64254380D01*
X118338600Y-64344282D01*
X118338600Y-66465374D01*
X118250173Y-66553647D01*
X118046732Y-67043587D01*
X118046269Y-67574086D01*
X118248854Y-68064380D01*
X118338600Y-68154282D01*
X118338600Y-71545374D01*
X118250173Y-71633647D01*
X118046732Y-72123587D01*
X118046269Y-72654086D01*
X118248854Y-73144380D01*
X118623647Y-73519827D01*
X119113587Y-73723268D01*
X119644086Y-73723731D01*
X120134380Y-73521146D01*
X120509827Y-73146353D01*
X120643313Y-72824881D01*
X120750200Y-73082929D01*
X120985812Y-73144583D01*
X121740395Y-72390000D01*
X120985812Y-71635417D01*
X120750200Y-71697071D01*
X120651916Y-71976311D01*
X120511146Y-71635620D01*
X120421400Y-71545717D01*
X120421400Y-68154625D01*
X120509827Y-68066353D01*
X120713268Y-67576413D01*
X120713731Y-67045914D01*
X120511146Y-66555620D01*
X120421400Y-66465717D01*
X120421400Y-64344625D01*
X120509827Y-64256353D01*
X120643313Y-63934881D01*
X120750200Y-64192929D01*
X120985812Y-64254583D01*
X121740395Y-63500000D01*
X120985812Y-62745417D01*
X120750200Y-62807071D01*
X120651916Y-63086311D01*
X120511146Y-62745620D01*
X120421400Y-62655717D01*
X120421400Y-59533799D01*
X120432292Y-59522926D01*
X120492673Y-59668698D01*
X120671301Y-59847327D01*
X120904690Y-59944000D01*
X121157309Y-59944000D01*
X121634250Y-59944000D01*
X121793000Y-59785250D01*
X121793000Y-62171432D01*
X121582801Y-62182852D01*
X121227071Y-62330200D01*
X121165417Y-62565812D01*
X121920000Y-63320395D01*
X122674583Y-62565812D01*
X122674583Y-62925022D01*
X122099605Y-63500000D01*
X122854188Y-64254583D01*
X123089800Y-64192929D01*
X123265927Y-63692520D01*
X123265927Y-72582520D01*
X123237148Y-72052801D01*
X123089800Y-71697071D01*
X122854188Y-71635417D01*
X122674583Y-71815022D01*
X122674583Y-71455812D01*
X122674583Y-64434188D01*
X121920000Y-63679605D01*
X121165417Y-64434188D01*
X121227071Y-64669800D01*
X121727480Y-64845927D01*
X122257199Y-64817148D01*
X122612929Y-64669800D01*
X122674583Y-64434188D01*
X122674583Y-71455812D01*
X122612929Y-71220200D01*
X122112520Y-71044073D01*
X121582801Y-71072852D01*
X121227071Y-71220200D01*
X121165417Y-71455812D01*
X121920000Y-72210395D01*
X122674583Y-71455812D01*
X122674583Y-71815022D01*
X122099605Y-72390000D01*
X122854188Y-73144583D01*
X123089800Y-73082929D01*
X123265927Y-72582520D01*
X123265927Y-75069699D01*
X122674583Y-75069699D01*
X122674583Y-73324188D01*
X121920000Y-72569605D01*
X121165417Y-73324188D01*
X121227071Y-73559800D01*
X121727480Y-73735927D01*
X122257199Y-73707148D01*
X122612929Y-73559800D01*
X122674583Y-73324188D01*
X122674583Y-75069699D01*
X119710201Y-75069699D01*
X119311674Y-75148971D01*
X118973820Y-75374718D01*
X118006781Y-76341756D01*
X117898199Y-76233173D01*
X117664810Y-76136500D01*
X117412191Y-76136500D01*
X117054977Y-76136500D01*
X117054977Y-53565903D01*
X117028389Y-52980431D01*
X116855490Y-52563017D01*
X116605413Y-52484192D01*
X116425808Y-52663797D01*
X116425808Y-52304587D01*
X116346983Y-52054510D01*
X115795903Y-51855023D01*
X115210431Y-51881611D01*
X114793017Y-52054510D01*
X114714192Y-52304587D01*
X115570000Y-53160395D01*
X116425808Y-52304587D01*
X116425808Y-52663797D01*
X115749605Y-53340000D01*
X116605413Y-54195808D01*
X116855490Y-54116983D01*
X117054977Y-53565903D01*
X117054977Y-76136500D01*
X117043200Y-76136500D01*
X117043200Y-56844510D01*
X117043200Y-56591891D01*
X117043200Y-54915491D01*
X116946527Y-54682102D01*
X116767899Y-54503473D01*
X116534510Y-54406800D01*
X116415914Y-54406800D01*
X116425808Y-54375413D01*
X115570000Y-53519605D01*
X115390395Y-53699210D01*
X115390395Y-53340000D01*
X114534587Y-52484192D01*
X114284510Y-52563017D01*
X114085023Y-53114097D01*
X114111611Y-53699569D01*
X114284510Y-54116983D01*
X114534587Y-54195808D01*
X115390395Y-53340000D01*
X115390395Y-53699210D01*
X114714192Y-54375413D01*
X114724085Y-54406800D01*
X114605491Y-54406800D01*
X114372102Y-54503473D01*
X114193473Y-54682101D01*
X114096800Y-54915490D01*
X114096800Y-55168109D01*
X114096800Y-56844509D01*
X114193473Y-57077898D01*
X114372101Y-57256527D01*
X114605490Y-57353200D01*
X114858109Y-57353200D01*
X116534509Y-57353200D01*
X116767898Y-57256527D01*
X116946527Y-57077899D01*
X117043200Y-56844510D01*
X117043200Y-76136500D01*
X116915927Y-76136500D01*
X116915927Y-71312520D01*
X116887148Y-70782801D01*
X116739800Y-70427071D01*
X116504188Y-70365417D01*
X116324583Y-70545022D01*
X116324583Y-70185812D01*
X116262929Y-69950200D01*
X115762520Y-69774073D01*
X115232801Y-69802852D01*
X114877071Y-69950200D01*
X114815417Y-70185812D01*
X115570000Y-70940395D01*
X116324583Y-70185812D01*
X116324583Y-70545022D01*
X115749605Y-71120000D01*
X116504188Y-71874583D01*
X116739800Y-71812929D01*
X116915927Y-71312520D01*
X116915927Y-76136500D01*
X116324583Y-76136500D01*
X116324583Y-72054188D01*
X115570000Y-71299605D01*
X115390395Y-71479210D01*
X115390395Y-71120000D01*
X114635812Y-70365417D01*
X114400200Y-70427071D01*
X114224073Y-70927480D01*
X114252852Y-71457199D01*
X114400200Y-71812929D01*
X114635812Y-71874583D01*
X115390395Y-71120000D01*
X115390395Y-71479210D01*
X114815417Y-72054188D01*
X114877071Y-72289800D01*
X115377480Y-72465927D01*
X115907199Y-72437148D01*
X116262929Y-72289800D01*
X116324583Y-72054188D01*
X116324583Y-76136500D01*
X116015191Y-76136500D01*
X115781802Y-76233173D01*
X115603173Y-76411801D01*
X115596214Y-76428600D01*
X111532020Y-76428600D01*
X111325591Y-76221810D01*
X110784323Y-75997056D01*
X110704977Y-75996986D01*
X110704977Y-56105903D01*
X110678389Y-55520431D01*
X110505490Y-55103017D01*
X110255413Y-55024192D01*
X110075808Y-55203797D01*
X110075808Y-54844587D01*
X109996983Y-54594510D01*
X109445903Y-54395023D01*
X108860431Y-54421611D01*
X108443017Y-54594510D01*
X108364192Y-54844587D01*
X109220000Y-55700395D01*
X110075808Y-54844587D01*
X110075808Y-55203797D01*
X109399605Y-55880000D01*
X110255413Y-56735808D01*
X110505490Y-56656983D01*
X110704977Y-56105903D01*
X110704977Y-75996986D01*
X110693455Y-75996976D01*
X110693455Y-58128248D01*
X110469647Y-57586589D01*
X110055591Y-57171810D01*
X110002004Y-57149558D01*
X110075808Y-56915413D01*
X109220000Y-56059605D01*
X109040395Y-56239210D01*
X109040395Y-55880000D01*
X108184587Y-55024192D01*
X107934510Y-55103017D01*
X107735023Y-55654097D01*
X107761611Y-56239569D01*
X107934510Y-56656983D01*
X108184587Y-56735808D01*
X109040395Y-55880000D01*
X109040395Y-56239210D01*
X108364192Y-56915413D01*
X108437870Y-57149163D01*
X108386589Y-57170353D01*
X107971810Y-57584409D01*
X107747056Y-58125677D01*
X107746545Y-58711752D01*
X107970353Y-59253411D01*
X108218592Y-59502083D01*
X108022102Y-59583473D01*
X107843473Y-59762101D01*
X107746800Y-59995490D01*
X107746800Y-60248109D01*
X107746800Y-61924509D01*
X107843473Y-62157898D01*
X108022101Y-62336527D01*
X108255490Y-62433200D01*
X108508109Y-62433200D01*
X110184509Y-62433200D01*
X110417898Y-62336527D01*
X110596527Y-62157899D01*
X110693200Y-61924510D01*
X110693200Y-61671891D01*
X110693200Y-59995491D01*
X110596527Y-59762102D01*
X110417899Y-59583473D01*
X110221308Y-59502042D01*
X110468190Y-59255591D01*
X110692944Y-58714323D01*
X110693455Y-58128248D01*
X110693455Y-75996976D01*
X110198248Y-75996545D01*
X109656589Y-76220353D01*
X109241810Y-76634409D01*
X109220224Y-76686391D01*
X109199647Y-76636589D01*
X108991400Y-76427978D01*
X108991400Y-71964625D01*
X109079827Y-71876353D01*
X109283268Y-71386413D01*
X109283731Y-70855914D01*
X109081146Y-70365620D01*
X108706353Y-69990173D01*
X108216413Y-69786732D01*
X107685914Y-69786269D01*
X107195620Y-69988854D01*
X106820173Y-70363647D01*
X106616732Y-70853587D01*
X106616269Y-71384086D01*
X106818854Y-71874380D01*
X106908600Y-71964282D01*
X106908600Y-76427979D01*
X106701810Y-76634409D01*
X106477056Y-77175677D01*
X106476545Y-77761752D01*
X106700353Y-78303411D01*
X107114409Y-78718190D01*
X107655677Y-78942944D01*
X107950439Y-78943201D01*
X109753619Y-80746381D01*
X110091473Y-80972128D01*
X110091474Y-80972128D01*
X110490000Y-81051400D01*
X115995374Y-81051400D01*
X116083647Y-81139827D01*
X116421446Y-81280093D01*
X116085620Y-81418854D01*
X115995717Y-81508600D01*
X109391350Y-81508600D01*
X109326527Y-81352102D01*
X109147899Y-81173473D01*
X108914510Y-81076800D01*
X108661891Y-81076800D01*
X106985491Y-81076800D01*
X106752102Y-81173473D01*
X106573473Y-81352101D01*
X106476800Y-81585490D01*
X106476800Y-81838109D01*
X106476800Y-83514509D01*
X106573473Y-83747898D01*
X106752101Y-83926527D01*
X106948691Y-84007957D01*
X106701810Y-84254409D01*
X106477056Y-84795677D01*
X106476545Y-85381752D01*
X106700353Y-85923411D01*
X107114409Y-86338190D01*
X107167995Y-86360441D01*
X107094192Y-86594587D01*
X107950000Y-87450395D01*
X108805808Y-86594587D01*
X108732129Y-86360836D01*
X108783411Y-86339647D01*
X108992021Y-86131400D01*
X115995374Y-86131400D01*
X116083647Y-86219827D01*
X116421446Y-86360093D01*
X116085620Y-86498854D01*
X115710173Y-86873647D01*
X115506732Y-87363587D01*
X115506269Y-87894086D01*
X115708854Y-88384380D01*
X116083647Y-88759827D01*
X116421446Y-88900093D01*
X116085620Y-89038854D01*
X115710173Y-89413647D01*
X115506732Y-89903587D01*
X115506269Y-90434086D01*
X115708854Y-90924380D01*
X116083647Y-91299827D01*
X116421446Y-91440093D01*
X116085620Y-91578854D01*
X115710173Y-91953647D01*
X115506732Y-92443587D01*
X115506269Y-92974086D01*
X115708854Y-93464380D01*
X116083647Y-93839827D01*
X116421446Y-93980093D01*
X116085620Y-94118854D01*
X115710173Y-94493647D01*
X115506732Y-94983587D01*
X115506269Y-95514086D01*
X115708854Y-96004380D01*
X116083647Y-96379827D01*
X116421446Y-96520093D01*
X116085620Y-96658854D01*
X115710173Y-97033647D01*
X115506732Y-97523587D01*
X115506621Y-97650616D01*
X115138638Y-98018600D01*
X108992020Y-98018600D01*
X108785591Y-97811810D01*
X108733608Y-97790224D01*
X108783411Y-97769647D01*
X109198190Y-97355591D01*
X109422944Y-96814323D01*
X109423201Y-96519560D01*
X115036381Y-90906381D01*
X115262128Y-90568527D01*
X115262128Y-90568526D01*
X115341400Y-90170000D01*
X115341400Y-89206972D01*
X115379313Y-89115668D01*
X115379687Y-88686216D01*
X115215689Y-88289311D01*
X114912286Y-87985378D01*
X114515668Y-87820687D01*
X114086216Y-87820313D01*
X113689311Y-87984311D01*
X113385378Y-88287714D01*
X113220687Y-88684332D01*
X113220313Y-89113784D01*
X113258600Y-89206445D01*
X113258600Y-89738638D01*
X109434977Y-93562260D01*
X109434977Y-87855903D01*
X109408389Y-87270431D01*
X109235490Y-86853017D01*
X108985413Y-86774192D01*
X108129605Y-87630000D01*
X108985413Y-88485808D01*
X109235490Y-88406983D01*
X109434977Y-87855903D01*
X109434977Y-93562260D01*
X108805808Y-94191429D01*
X108805808Y-88665413D01*
X107950000Y-87809605D01*
X107770395Y-87989210D01*
X107770395Y-87630000D01*
X106914587Y-86774192D01*
X106664510Y-86853017D01*
X106465023Y-87404097D01*
X106491611Y-87989569D01*
X106664510Y-88406983D01*
X106914587Y-88485808D01*
X107770395Y-87630000D01*
X107770395Y-87989210D01*
X107094192Y-88665413D01*
X107173017Y-88915490D01*
X107724097Y-89114977D01*
X108309569Y-89088389D01*
X108726983Y-88915490D01*
X108805808Y-88665413D01*
X108805808Y-94191429D01*
X107950438Y-95046799D01*
X107658248Y-95046545D01*
X107116589Y-95270353D01*
X106867916Y-95518592D01*
X106786527Y-95322102D01*
X106607899Y-95143473D01*
X106374510Y-95046800D01*
X106121891Y-95046800D01*
X105695750Y-95046800D01*
X105537000Y-95205550D01*
X105537000Y-96393000D01*
X105557000Y-96393000D01*
X105557000Y-96647000D01*
X105537000Y-96647000D01*
X105537000Y-96667000D01*
X105283000Y-96667000D01*
X105283000Y-96647000D01*
X105283000Y-96393000D01*
X105283000Y-95205550D01*
X105124250Y-95046800D01*
X104698109Y-95046800D01*
X104445490Y-95046800D01*
X104212101Y-95143473D01*
X104033473Y-95322102D01*
X103936800Y-95555491D01*
X103936800Y-96234250D01*
X104095550Y-96393000D01*
X105283000Y-96393000D01*
X105283000Y-96647000D01*
X104095550Y-96647000D01*
X103936800Y-96805750D01*
X103936800Y-97484509D01*
X104033473Y-97717898D01*
X104212101Y-97896527D01*
X104408691Y-97977957D01*
X104161810Y-98224409D01*
X103937056Y-98765677D01*
X103936545Y-99351752D01*
X104160353Y-99893411D01*
X104574409Y-100308190D01*
X104626391Y-100329775D01*
X104576589Y-100350353D01*
X104161810Y-100764409D01*
X103937056Y-101305677D01*
X103936545Y-101891752D01*
X104160353Y-102433411D01*
X104574409Y-102848190D01*
X104626391Y-102869775D01*
X104576589Y-102890353D01*
X104161810Y-103304409D01*
X103937056Y-103845677D01*
X103936545Y-104431752D01*
X104160353Y-104973411D01*
X104574409Y-105388190D01*
X105115677Y-105612944D01*
X105410439Y-105613201D01*
X105651738Y-105854500D01*
X103695500Y-105854500D01*
X103695500Y-49085500D01*
X142684500Y-49085500D01*
X142684500Y-105854500D01*
M02*
