M48
INCH,TZ
T1C0.025
T2C0.032
T3C0.040
T4C0.045
T5C0.118
%
G90
G05
T1
X45000Y-35000
T2
X42500Y-28000
X42500Y-30500
X43500Y-30500
X45500Y-28000
X46000Y-30500
X46000Y-31500
X46000Y-32500
X46000Y-33500
X46000Y-34500
X46000Y-35500
X46000Y-36500
X46000Y-37500
X46000Y-38500
X46000Y-39500
X47000Y-25000
X47000Y-26500
X47000Y-28500
X48000Y-21000
X48000Y-25000
X48000Y-28500
X49000Y-21000
X49000Y-30500
X49000Y-31500
X49000Y-32500
X49000Y-33500
X49000Y-34500
X49000Y-35500
X49000Y-36500
X49000Y-37500
X49000Y-38500
X49000Y-39500
X49000Y-41000
X50000Y-26500
X50500Y-28000
X50500Y-29000
X50500Y-30000
X50500Y-33000
X51500Y-34000
X51500Y-35000
X52000Y-41000
X53000Y-34500
X53000Y-37500
X54000Y-40000
X54000Y-41000
T3
X41500Y-38000
X41500Y-39000
X41500Y-40000
X41500Y-41000
X42500Y-32500
X42500Y-33500
X42500Y-34500
X42500Y-38000
X42500Y-39000
X42500Y-40000
X42500Y-41000
X43000Y-22000
X43000Y-23000
X43000Y-24000
X45500Y-21000
X45500Y-22000
X51500Y-36500
X51500Y-37500
X51500Y-38500
X51500Y-39500
X53000Y-31000
X53000Y-32000
X53000Y-33000
T4
X47000Y-23000
X48000Y-23000
X49000Y-23000
T5
X52150Y-23681
X54000Y-22500
X54000Y-24862
T0
M30
