%FSLAX46Y46*%
G04 Gerber Fmt 4.6, Leading zero omitted, Abs format (unit mm)*
G04 Created by KiCad (PCBNEW (2014-10-04 BZR 5163)-product) date So 05 Okt 2014 16:09:57 CEST*
%MOMM*%
G01*
G04 APERTURE LIST*
%ADD10C,0.100000*%
%ADD11C,0.250000*%
%ADD12C,0.381000*%
G04 APERTURE END LIST*
D10*
D11*
X113958096Y-50585714D02*
X113577144Y-50585714D01*
X113815239Y-51252381D02*
X113815239Y-50395238D01*
X113767620Y-50300000D01*
X113672382Y-50252381D01*
X113577144Y-50252381D01*
X113243810Y-51252381D02*
X113243810Y-50585714D01*
X113243810Y-50776190D02*
X113196191Y-50680952D01*
X113148572Y-50633333D01*
X113053334Y-50585714D01*
X112958095Y-50585714D01*
X112196190Y-51252381D02*
X112196190Y-50728571D01*
X112243809Y-50633333D01*
X112339047Y-50585714D01*
X112529524Y-50585714D01*
X112624762Y-50633333D01*
X112196190Y-51204762D02*
X112291428Y-51252381D01*
X112529524Y-51252381D01*
X112624762Y-51204762D01*
X112672381Y-51109524D01*
X112672381Y-51014286D01*
X112624762Y-50919048D01*
X112529524Y-50871429D01*
X112291428Y-50871429D01*
X112196190Y-50823810D01*
X111720000Y-50585714D02*
X111720000Y-51252381D01*
X111720000Y-50680952D02*
X111672381Y-50633333D01*
X111577143Y-50585714D01*
X111434285Y-50585714D01*
X111339047Y-50633333D01*
X111291428Y-50728571D01*
X111291428Y-51252381D01*
X110815238Y-51252381D02*
X110815238Y-50252381D01*
X110720000Y-50871429D02*
X110434285Y-51252381D01*
X110434285Y-50585714D02*
X110815238Y-50966667D01*
X109577142Y-51252381D02*
X109577142Y-50728571D01*
X109624761Y-50633333D01*
X109719999Y-50585714D01*
X109910476Y-50585714D01*
X110005714Y-50633333D01*
X109577142Y-51204762D02*
X109672380Y-51252381D01*
X109910476Y-51252381D01*
X110005714Y-51204762D01*
X110053333Y-51109524D01*
X110053333Y-51014286D01*
X110005714Y-50919048D01*
X109910476Y-50871429D01*
X109672380Y-50871429D01*
X109577142Y-50823810D01*
X108958095Y-51252381D02*
X109053333Y-51204762D01*
X109100952Y-51109524D01*
X109100952Y-50252381D01*
X108577142Y-51252381D02*
X108577142Y-50585714D01*
X108577142Y-50252381D02*
X108624761Y-50300000D01*
X108577142Y-50347619D01*
X108529523Y-50300000D01*
X108577142Y-50252381D01*
X108577142Y-50347619D01*
X107672380Y-51204762D02*
X107767618Y-51252381D01*
X107958095Y-51252381D01*
X108053333Y-51204762D01*
X108100952Y-51157143D01*
X108148571Y-51061905D01*
X108148571Y-50776190D01*
X108100952Y-50680952D01*
X108053333Y-50633333D01*
X107958095Y-50585714D01*
X107767618Y-50585714D01*
X107672380Y-50633333D01*
X107243809Y-51252381D02*
X107243809Y-50585714D01*
X107243809Y-50252381D02*
X107291428Y-50300000D01*
X107243809Y-50347619D01*
X107196190Y-50300000D01*
X107243809Y-50252381D01*
X107243809Y-50347619D01*
X106624762Y-51252381D02*
X106720000Y-51204762D01*
X106767619Y-51157143D01*
X106815238Y-51061905D01*
X106815238Y-50776190D01*
X106767619Y-50680952D01*
X106720000Y-50633333D01*
X106624762Y-50585714D01*
X106481904Y-50585714D01*
X106386666Y-50633333D01*
X106339047Y-50680952D01*
X106291428Y-50776190D01*
X106291428Y-51061905D01*
X106339047Y-51157143D01*
X106386666Y-51204762D01*
X106481904Y-51252381D01*
X106624762Y-51252381D01*
X105434285Y-50585714D02*
X105434285Y-51252381D01*
X105862857Y-50585714D02*
X105862857Y-51109524D01*
X105815238Y-51204762D01*
X105720000Y-51252381D01*
X105577142Y-51252381D01*
X105481904Y-51204762D01*
X105434285Y-51157143D01*
X105005714Y-51204762D02*
X104910476Y-51252381D01*
X104720000Y-51252381D01*
X104624761Y-51204762D01*
X104577142Y-51109524D01*
X104577142Y-51061905D01*
X104624761Y-50966667D01*
X104720000Y-50919048D01*
X104862857Y-50919048D01*
X104958095Y-50871429D01*
X105005714Y-50776190D01*
X105005714Y-50728571D01*
X104958095Y-50633333D01*
X104862857Y-50585714D01*
X104720000Y-50585714D01*
X104624761Y-50633333D01*
D12*
X115968780Y-63350140D02*
X116329460Y-61879480D01*
X116329460Y-61879480D02*
X116608860Y-62941200D01*
X116608860Y-62941200D02*
X116918740Y-61869320D01*
X116918740Y-61869320D02*
X117259100Y-63319660D01*
X114548920Y-62659260D02*
X115338860Y-62669420D01*
X115338860Y-62669420D02*
X115349020Y-62659260D01*
X115349020Y-62659260D02*
X115349020Y-62669420D01*
X115389660Y-63380620D02*
X115389660Y-61838840D01*
X114500660Y-63390780D02*
X114500660Y-61821060D01*
X114500660Y-61821060D02*
X114510820Y-61831220D01*
X113949480Y-63289180D02*
X113598960Y-63370460D01*
X113598960Y-63370460D02*
X113278920Y-63380620D01*
X113278920Y-63380620D02*
X113040160Y-63179960D01*
X113040160Y-63179960D02*
X113009680Y-62910720D01*
X113009680Y-62910720D02*
X113250980Y-62669420D01*
X113250980Y-62669420D02*
X113639600Y-62539880D01*
X113639600Y-62539880D02*
X113819940Y-62379860D01*
X113819940Y-62379860D02*
X113860580Y-62080140D01*
X113860580Y-62080140D02*
X113629440Y-61859160D01*
X113629440Y-61859160D02*
X113309400Y-61831220D01*
X113309400Y-61831220D02*
X112958880Y-61940440D01*
X111920020Y-63390780D02*
X111671100Y-63370460D01*
X111671100Y-63370460D02*
X111429800Y-63129160D01*
X111429800Y-63129160D02*
X111340900Y-62638940D01*
X111340900Y-62638940D02*
X111368840Y-62290960D01*
X111368840Y-62290960D02*
X111569500Y-61970920D01*
X111569500Y-61970920D02*
X111820960Y-61849000D01*
X111820960Y-61849000D02*
X112130840Y-61920120D01*
X112130840Y-61920120D02*
X112349280Y-62100460D01*
X112349280Y-62100460D02*
X112420400Y-62560200D01*
X112420400Y-62560200D02*
X112369600Y-62969140D01*
X112369600Y-62969140D02*
X112260380Y-63251080D01*
X112260380Y-63251080D02*
X111899700Y-63380620D01*
X112519460Y-65110360D02*
X112260380Y-64549020D01*
X112260380Y-64549020D02*
X112798860Y-64030860D01*
X112798860Y-64030860D02*
X113319560Y-64300100D01*
X113319560Y-64300100D02*
X113598960Y-64140080D01*
X115039140Y-64160400D02*
X115369340Y-64350900D01*
X115369340Y-64350900D02*
X115808760Y-64020700D01*
X115808760Y-64020700D02*
X116281200Y-64510920D01*
X116281200Y-64510920D02*
X115999260Y-64990980D01*
X115999260Y-64990980D02*
X116189760Y-65460880D01*
X116189760Y-65460880D02*
X116799360Y-65648840D01*
X116799360Y-65648840D02*
X116799360Y-66329560D01*
X116799360Y-66329560D02*
X116240560Y-66469260D01*
X116240560Y-66469260D02*
X116039900Y-67040760D01*
X116039900Y-67040760D02*
X116309140Y-67510660D01*
X116309140Y-67510660D02*
X115839240Y-68021200D01*
X115839240Y-68021200D02*
X115321080Y-67759580D01*
X115321080Y-67759580D02*
X114851180Y-67960240D01*
X114851180Y-67960240D02*
X114681000Y-68501260D01*
X114681000Y-68501260D02*
X113990120Y-68519040D01*
X113990120Y-68519040D02*
X113779300Y-67970400D01*
X113779300Y-67970400D02*
X113360200Y-67800220D01*
X113360200Y-67800220D02*
X112809020Y-68069460D01*
X112809020Y-68069460D02*
X112290860Y-67541140D01*
X112290860Y-67541140D02*
X112539780Y-67000120D01*
X112539780Y-67000120D02*
X112369600Y-66520060D01*
X112369600Y-66520060D02*
X111820960Y-66421000D01*
X111820960Y-66421000D02*
X111810800Y-65719960D01*
X111810800Y-65719960D02*
X112369600Y-65519300D01*
X112369600Y-65519300D02*
X112509300Y-65120520D01*
X114650520Y-65140840D02*
X114950240Y-65290700D01*
X114950240Y-65290700D02*
X115150900Y-65488820D01*
X115150900Y-65488820D02*
X115300760Y-65890140D01*
X115300760Y-65890140D02*
X115300760Y-66288920D01*
X115300760Y-66288920D02*
X115150900Y-66639440D01*
X115150900Y-66639440D02*
X114698780Y-66989960D01*
X114698780Y-66989960D02*
X114249200Y-67040760D01*
X114249200Y-67040760D02*
X113850420Y-66939160D01*
X113850420Y-66939160D02*
X113449100Y-66591180D01*
X113449100Y-66591180D02*
X113299240Y-66139060D01*
X113299240Y-66139060D02*
X113350040Y-65641220D01*
X113350040Y-65641220D02*
X113598960Y-65338960D01*
X113598960Y-65338960D02*
X113949480Y-65140840D01*
X113949480Y-65140840D02*
X113598960Y-64140080D01*
X114650520Y-65140840D02*
X115049300Y-64140080D01*
M02*
