%FSLAX46Y46*%
G04 Gerber Fmt 4.6, Leading zero omitted, Abs format (unit mm)*
G04 Created by KiCad (PCBNEW (2014-10-04 BZR 5163)-product) date So 05 Okt 2014 16:09:57 CEST*
%MOMM*%
G01*
G04 APERTURE LIST*
%ADD10C,0.100000*%
%ADD11C,0.250000*%
G04 APERTURE END LIST*
D10*
D11*
X151407619Y-73850953D02*
X151407619Y-73374762D01*
X150931429Y-73327143D01*
X150979048Y-73374762D01*
X151026667Y-73470000D01*
X151026667Y-73708096D01*
X150979048Y-73803334D01*
X150931429Y-73850953D01*
X150836190Y-73898572D01*
X150598095Y-73898572D01*
X150502857Y-73850953D01*
X150455238Y-73803334D01*
X150407619Y-73708096D01*
X150407619Y-73470000D01*
X150455238Y-73374762D01*
X150502857Y-73327143D01*
X150979048Y-74470000D02*
X151026667Y-74374762D01*
X151074286Y-74327143D01*
X151169524Y-74279524D01*
X151217143Y-74279524D01*
X151312381Y-74327143D01*
X151360000Y-74374762D01*
X151407619Y-74470000D01*
X151407619Y-74660477D01*
X151360000Y-74755715D01*
X151312381Y-74803334D01*
X151217143Y-74850953D01*
X151169524Y-74850953D01*
X151074286Y-74803334D01*
X151026667Y-74755715D01*
X150979048Y-74660477D01*
X150979048Y-74470000D01*
X150931429Y-74374762D01*
X150883810Y-74327143D01*
X150788571Y-74279524D01*
X150598095Y-74279524D01*
X150502857Y-74327143D01*
X150455238Y-74374762D01*
X150407619Y-74470000D01*
X150407619Y-74660477D01*
X150455238Y-74755715D01*
X150502857Y-74803334D01*
X150598095Y-74850953D01*
X150788571Y-74850953D01*
X150883810Y-74803334D01*
X150931429Y-74755715D01*
X150979048Y-74660477D01*
X150455238Y-75327143D02*
X150407619Y-75327143D01*
X150312381Y-75279524D01*
X150264762Y-75231905D01*
X151074286Y-76184286D02*
X150407619Y-76184286D01*
X151455238Y-75946190D02*
X150740952Y-75708095D01*
X150740952Y-76327143D01*
X151312381Y-76660476D02*
X151360000Y-76708095D01*
X151407619Y-76803333D01*
X151407619Y-77041429D01*
X151360000Y-77136667D01*
X151312381Y-77184286D01*
X151217143Y-77231905D01*
X151121905Y-77231905D01*
X150979048Y-77184286D01*
X150407619Y-76612857D01*
X150407619Y-77231905D01*
X151407619Y-77850952D02*
X151407619Y-77946191D01*
X151360000Y-78041429D01*
X151312381Y-78089048D01*
X151217143Y-78136667D01*
X151026667Y-78184286D01*
X150788571Y-78184286D01*
X150598095Y-78136667D01*
X150502857Y-78089048D01*
X150455238Y-78041429D01*
X150407619Y-77946191D01*
X150407619Y-77850952D01*
X150455238Y-77755714D01*
X150502857Y-77708095D01*
X150598095Y-77660476D01*
X150788571Y-77612857D01*
X151026667Y-77612857D01*
X151217143Y-77660476D01*
X151312381Y-77708095D01*
X151360000Y-77755714D01*
X151407619Y-77850952D01*
X150407619Y-79374762D02*
X151074286Y-79374762D01*
X150979048Y-79374762D02*
X151026667Y-79422381D01*
X151074286Y-79517619D01*
X151074286Y-79660477D01*
X151026667Y-79755715D01*
X150931429Y-79803334D01*
X150407619Y-79803334D01*
X150931429Y-79803334D02*
X151026667Y-79850953D01*
X151074286Y-79946191D01*
X151074286Y-80089048D01*
X151026667Y-80184286D01*
X150931429Y-80231905D01*
X150407619Y-80231905D01*
X150407619Y-80708095D02*
X151074286Y-80708095D01*
X150979048Y-80708095D02*
X151026667Y-80755714D01*
X151074286Y-80850952D01*
X151074286Y-80993810D01*
X151026667Y-81089048D01*
X150931429Y-81136667D01*
X150407619Y-81136667D01*
X150931429Y-81136667D02*
X151026667Y-81184286D01*
X151074286Y-81279524D01*
X151074286Y-81422381D01*
X151026667Y-81517619D01*
X150931429Y-81565238D01*
X150407619Y-81565238D01*
X149860000Y-48260000D02*
X149860000Y-106680000D01*
X143510000Y-48260000D02*
X151860000Y-48260000D01*
X143510000Y-106680000D02*
X151860000Y-106680000D01*
X149860000Y-106680000D02*
X149273579Y-105553496D01*
X149860000Y-106680000D02*
X150446421Y-105553496D01*
X149860000Y-48260000D02*
X149273579Y-49386504D01*
X149860000Y-48260000D02*
X150446421Y-49386504D01*
X119523334Y-111275714D02*
X119523334Y-111942381D01*
X119285238Y-110894762D02*
X119047143Y-111609048D01*
X119666191Y-111609048D01*
X120237619Y-110942381D02*
X120332858Y-110942381D01*
X120428096Y-110990000D01*
X120475715Y-111037619D01*
X120523334Y-111132857D01*
X120570953Y-111323333D01*
X120570953Y-111561429D01*
X120523334Y-111751905D01*
X120475715Y-111847143D01*
X120428096Y-111894762D01*
X120332858Y-111942381D01*
X120237619Y-111942381D01*
X120142381Y-111894762D01*
X120094762Y-111847143D01*
X120047143Y-111751905D01*
X119999524Y-111561429D01*
X119999524Y-111323333D01*
X120047143Y-111132857D01*
X120094762Y-111037619D01*
X120142381Y-110990000D01*
X120237619Y-110942381D01*
X121047143Y-111894762D02*
X121047143Y-111942381D01*
X120999524Y-112037619D01*
X120951905Y-112085238D01*
X121904286Y-110942381D02*
X121713809Y-110942381D01*
X121618571Y-110990000D01*
X121570952Y-111037619D01*
X121475714Y-111180476D01*
X121428095Y-111370952D01*
X121428095Y-111751905D01*
X121475714Y-111847143D01*
X121523333Y-111894762D01*
X121618571Y-111942381D01*
X121809048Y-111942381D01*
X121904286Y-111894762D01*
X121951905Y-111847143D01*
X121999524Y-111751905D01*
X121999524Y-111513810D01*
X121951905Y-111418571D01*
X121904286Y-111370952D01*
X121809048Y-111323333D01*
X121618571Y-111323333D01*
X121523333Y-111370952D01*
X121475714Y-111418571D01*
X121428095Y-111513810D01*
X122856667Y-111275714D02*
X122856667Y-111942381D01*
X122618571Y-110894762D02*
X122380476Y-111609048D01*
X122999524Y-111609048D01*
X123570952Y-110942381D02*
X123666191Y-110942381D01*
X123761429Y-110990000D01*
X123809048Y-111037619D01*
X123856667Y-111132857D01*
X123904286Y-111323333D01*
X123904286Y-111561429D01*
X123856667Y-111751905D01*
X123809048Y-111847143D01*
X123761429Y-111894762D01*
X123666191Y-111942381D01*
X123570952Y-111942381D01*
X123475714Y-111894762D01*
X123428095Y-111847143D01*
X123380476Y-111751905D01*
X123332857Y-111561429D01*
X123332857Y-111323333D01*
X123380476Y-111132857D01*
X123428095Y-111037619D01*
X123475714Y-110990000D01*
X123570952Y-110942381D01*
X125094762Y-111942381D02*
X125094762Y-111275714D01*
X125094762Y-111370952D02*
X125142381Y-111323333D01*
X125237619Y-111275714D01*
X125380477Y-111275714D01*
X125475715Y-111323333D01*
X125523334Y-111418571D01*
X125523334Y-111942381D01*
X125523334Y-111418571D02*
X125570953Y-111323333D01*
X125666191Y-111275714D01*
X125809048Y-111275714D01*
X125904286Y-111323333D01*
X125951905Y-111418571D01*
X125951905Y-111942381D01*
X126428095Y-111942381D02*
X126428095Y-111275714D01*
X126428095Y-111370952D02*
X126475714Y-111323333D01*
X126570952Y-111275714D01*
X126713810Y-111275714D01*
X126809048Y-111323333D01*
X126856667Y-111418571D01*
X126856667Y-111942381D01*
X126856667Y-111418571D02*
X126904286Y-111323333D01*
X126999524Y-111275714D01*
X127142381Y-111275714D01*
X127237619Y-111323333D01*
X127285238Y-111418571D01*
X127285238Y-111942381D01*
X102870000Y-110490000D02*
X143510000Y-110490000D01*
X102870000Y-106680000D02*
X102870000Y-112490000D01*
X143510000Y-106680000D02*
X143510000Y-112490000D01*
X143510000Y-110490000D02*
X142383496Y-111076421D01*
X143510000Y-110490000D02*
X142383496Y-109903579D01*
X102870000Y-110490000D02*
X103996504Y-111076421D01*
X102870000Y-110490000D02*
X103996504Y-109903579D01*
M02*
