%FSLAX46Y46*%
G04 Gerber Fmt 4.6, Leading zero omitted, Abs format (unit mm)*
G04 Created by KiCad (PCBNEW (2014-10-04 BZR 5163)-product) date So 05 Okt 2014 16:09:57 CEST*
%MOMM*%
G01*
G04 APERTURE LIST*
%ADD10C,0.100000*%
%ADD11R,1.397000X1.397000*%
%ADD12C,1.397000*%
%ADD13C,1.676400*%
%ADD14C,1.778000*%
%ADD15R,1.778000X1.778000*%
%ADD16R,2.032000X1.727200*%
%ADD17O,2.032000X1.727200*%
%ADD18R,1.676400X1.676400*%
%ADD19C,4.318000*%
G04 APERTURE END LIST*
D10*
D11*
X116840000Y-77470000D03*
D12*
X116840000Y-80010000D03*
X116840000Y-82550000D03*
X116840000Y-85090000D03*
X116840000Y-87630000D03*
X116840000Y-90170000D03*
X116840000Y-92710000D03*
X116840000Y-95250000D03*
X116840000Y-97790000D03*
X116840000Y-100330000D03*
X124460000Y-100330000D03*
X124460000Y-97790000D03*
X124460000Y-95250000D03*
X124460000Y-92710000D03*
X124460000Y-90170000D03*
X124460000Y-87630000D03*
X124460000Y-85090000D03*
X124460000Y-82550000D03*
X124460000Y-80010000D03*
X124460000Y-77470000D03*
X119380000Y-72390000D03*
X121920000Y-72390000D03*
X124460000Y-53340000D03*
X121920000Y-53340000D03*
X119380000Y-63500000D03*
X121920000Y-63500000D03*
D13*
X137160000Y-104140000D03*
X137160000Y-101600000D03*
D12*
X124460000Y-104140000D03*
X132080000Y-104140000D03*
D14*
X124460000Y-58420000D03*
D15*
X121920000Y-58420000D03*
D14*
X119380000Y-58420000D03*
D12*
X134620000Y-87630000D03*
X134620000Y-95250000D03*
D16*
X130810000Y-92710000D03*
D17*
X130810000Y-95250000D03*
X130810000Y-97790000D03*
X130810000Y-100330000D03*
D12*
X130810000Y-88900000D03*
X130810000Y-86360000D03*
D18*
X109220000Y-60960000D03*
D13*
X109220000Y-58420000D03*
X109220000Y-55880000D03*
X107950000Y-77470000D03*
X110490000Y-77470000D03*
D12*
X107950000Y-71120000D03*
X115570000Y-71120000D03*
D13*
X128270000Y-71120000D03*
X128270000Y-73660000D03*
D12*
X119380000Y-67310000D03*
X127000000Y-67310000D03*
D13*
X105410000Y-104140000D03*
X107950000Y-104140000D03*
X107950000Y-101600000D03*
X105410000Y-101600000D03*
X105410000Y-99060000D03*
X107950000Y-99060000D03*
X107950000Y-96520000D03*
D18*
X105410000Y-96520000D03*
X107950000Y-82550000D03*
D13*
X107950000Y-85090000D03*
X107950000Y-87630000D03*
D18*
X134620000Y-78740000D03*
D13*
X134620000Y-81280000D03*
X134620000Y-83820000D03*
D12*
X128270000Y-76200000D03*
X128270000Y-83820000D03*
D19*
X137160000Y-57150000D03*
X137160000Y-63150000D03*
X132460000Y-60150000D03*
D18*
X115570000Y-55880000D03*
D13*
X115570000Y-53340000D03*
M02*
